<svg width="320" height="308" viewBox="0 0 320 308" fill="none" xmlns="http://www.w3.org/2000/svg">
<g opacity="0.03" clip-path="url(#clip0_301_713)">
<path d="M103.445 26.1765L6.41776 284.514C1.70477 295.641 13.0282 306.831 24.6766 302.557L292.189 210.249L221.844 105.233L103.445 26.1765Z" fill="#ECB880"/>
<path d="M39.5782 297.413L24.6786 302.556C13.029 306.833 1.70432 295.639 6.41668 284.516L103.445 26.1765L116.626 34.9771L25.1661 278.501C20.9788 288.384 29.4598 298.327 39.5782 297.413Z" fill="#E9A761"/>
<path d="M272.112 211.773C270.306 210.03 268.749 207.99 267.527 205.676C231.886 138.212 176.075 84.3828 106.125 50.0081C93.8545 43.9776 88.9752 29.4942 95.2275 17.6588C101.48 5.82282 116.496 1.11754 128.768 7.14743C168.023 26.4384 203.722 51.4542 234.875 81.5002C266.027 111.546 291.964 145.977 311.966 183.837C318.218 195.673 313.339 210.156 301.068 216.187C291.195 221.039 279.544 218.941 272.112 211.773V211.773Z" fill="#E9A761"/>
<path d="M295.271 218.214C286.908 220.054 278.127 217.576 272.109 211.771C270.303 210.033 268.746 207.987 267.528 205.677C231.885 138.214 176.074 84.3819 106.126 50.0096C93.8515 43.9762 88.9767 29.497 95.2265 17.6586C95.889 16.4013 96.6515 15.2283 97.5014 14.1395C97.5077 22.892 102.483 31.3196 111.126 35.5726C181.074 69.9448 250.634 132.199 286.277 199.662C287.046 201.118 291.571 210.803 295.271 218.214Z" fill="#E69642"/>
<path d="M152.194 237.921C170.833 237.921 185.943 223.377 185.943 205.437C185.943 187.497 170.833 172.954 152.194 172.954C133.555 172.954 118.445 187.497 118.445 205.437C118.445 223.377 133.555 237.921 152.194 237.921Z" fill="#DC4955"/>
<path d="M181.48 221.595C175.655 231.352 164.718 237.921 152.194 237.921C133.557 237.921 118.445 223.375 118.445 205.437C118.445 193.382 125.269 182.855 135.407 177.249C132.569 182.007 130.944 187.523 130.944 193.406C130.944 211.344 146.056 225.89 164.693 225.89C170.806 225.89 176.537 224.326 181.48 221.595Z" fill="#D82F3C"/>
<path d="M77.821 237.921C77.821 255.859 62.7089 270.404 44.0719 270.404C32.8035 270.404 22.8288 265.092 16.6978 256.924L35.4785 206.502C38.2221 205.804 41.1033 205.437 44.0719 205.437C62.7089 205.437 77.821 219.983 77.821 237.921Z" fill="#DC4955"/>
<path d="M125.944 103.776C125.944 121.714 110.832 136.259 92.1954 136.259C87.6955 136.259 83.4081 135.411 79.4832 133.877C74.3897 131.88 69.921 128.722 66.4211 124.746L86.3143 71.7857C88.2205 71.4609 90.1892 71.2925 92.1954 71.2925C95.7578 71.2925 99.1889 71.8218 102.414 72.8144C116.057 76.9771 125.944 89.2667 125.944 103.776V103.776Z" fill="#DC4955"/>
<path d="M52.2464 206.4L29.4158 267.186C24.3659 264.846 20.0223 261.327 16.7537 256.996L35.7406 206.442C38.403 205.78 41.1967 205.437 44.0716 205.437C46.8903 205.437 49.6277 205.768 52.2464 206.4Z" fill="#D82F3C"/>
<path d="M102.414 72.8144L79.4833 133.877C74.3897 131.88 69.921 128.722 66.4211 124.746L86.3143 71.7857C88.2205 71.4609 90.1892 71.2925 92.1954 71.2925C95.7578 71.2925 99.1889 71.8218 102.414 72.8144V72.8144Z" fill="#D82F3C"/>
<path d="M143.358 123.919C146.191 116.071 155.204 111.646 159.672 109.884C161.157 109.298 162.852 109.883 163.615 111.242C165.941 115.384 170.121 124.484 167.28 132.357C164.447 140.205 155.434 144.63 150.966 146.392C149.481 146.978 147.786 146.393 147.023 145.034C144.697 140.892 140.517 131.792 143.358 123.919V123.919Z" fill="#B7E546"/>
<path d="M168.2 127.712C168.112 129.276 167.825 130.84 167.281 132.356C164.448 140.203 155.435 144.63 150.967 146.393C149.482 146.979 147.788 146.393 147.025 145.035C144.697 140.893 140.515 131.795 143.356 123.922C143.762 122.791 144.3 121.732 144.937 120.746C144.518 128.025 148.376 135.333 150.1 138.206C150.557 138.967 151.517 139.296 152.372 138.987C155.739 137.77 164.048 134.228 168.2 127.712V127.712Z" fill="#ABD641"/>
<path d="M197.527 179.295C192.218 172.844 193.158 163.244 194.003 158.697C194.286 157.176 195.709 156.114 197.31 156.224C202.159 156.559 212.278 158.042 217.605 164.514C222.914 170.966 221.974 180.565 221.128 185.113C220.846 186.634 219.423 187.695 217.822 187.585C212.972 187.25 202.853 185.767 197.527 179.295Z" fill="#B7E546"/>
<path d="M221.71 180.461C221.596 182.164 221.41 183.545 221.129 185.123C220.842 186.639 219.417 187.697 217.823 187.583C211.451 187.093 204.727 185.56 199.73 181.495C192.993 175.979 192.593 166.472 194.005 158.697C194.099 158.203 194.311 157.758 194.617 157.385C194.467 162.059 195.23 167.768 198.774 172.075C205.636 180.413 220.435 180.473 221.71 180.461V180.461Z" fill="#ABD641"/>
<path d="M75.4112 184.726C72.1544 176.781 76.393 167.462 78.4973 163.622C79.0811 162.558 80.3873 162.06 81.5616 162.475C85.8346 163.983 95.7093 168.237 98.9805 176.219C102.237 184.165 97.9987 193.483 95.8943 197.323C95.3106 198.387 94.0044 198.885 92.8301 198.47C88.557 196.962 78.6823 192.708 75.4112 184.726V184.726Z" fill="#B7E546"/>
<path d="M98.3761 191.836C97.6849 193.743 96.8562 195.567 95.8887 197.328C95.3075 198.381 94.02 198.874 92.8576 198.483C85.9109 195.952 78.3736 191.72 75.4081 184.726C74.4706 182.44 74.1519 180.04 74.2331 177.694C74.4056 172.742 76.1937 167.868 78.5267 163.57C78.7642 163.167 79.108 162.848 79.5017 162.637C78.0205 167.005 77.1205 172.527 79.158 177.508C83.0891 187.09 96.5324 191.301 98.3761 191.836V191.836Z" fill="#ABD641"/>
<path d="M316.144 181.793C295.92 143.51 269.693 108.694 238.193 78.313C206.692 47.9307 170.593 22.6352 130.9 3.12946C123.854 -0.332434 115.831 -0.944806 108.306 1.40844C100.773 3.76469 94.6443 8.80924 91.0494 15.6139C86.4039 24.4091 86.9539 34.4609 91.5931 42.4994L81.209 70.375C81.2072 70.3804 81.204 70.3852 81.2022 70.39L76.5486 82.8847L31.0699 204.97C31.0686 204.973 31.0674 204.975 31.0661 204.978L26.005 218.566L2.03762 282.906C-0.808541 289.728 0.735163 297.22 6.07751 302.482C11.4398 307.783 19.279 309.368 26.3019 306.789L115.439 276.015C117.876 275.174 119.143 272.59 118.269 270.245C117.394 267.899 114.711 266.682 112.274 267.522L23.0945 298.311C19.4177 299.693 15.5429 298.899 12.7823 296.174C10.0243 293.459 9.26804 289.737 10.7586 286.217C10.7842 286.157 10.808 286.097 10.8305 286.036L18.4821 265.495C25.4632 271.481 34.5679 274.915 44.072 274.915C65.2658 274.915 82.5084 258.319 82.5084 237.92C82.5084 217.521 65.2658 200.925 44.072 200.925C43.5545 200.925 43.0389 200.938 42.5233 200.958L68.0163 132.524C74.798 137.821 83.2777 140.771 92.1956 140.771C113.389 140.771 130.632 124.175 130.632 103.776C130.632 83.476 113.556 66.9492 92.5043 66.7879L98.5473 50.5655C113.024 59.4467 129.071 66.4763 142.979 76.1702C145.123 77.5652 148.038 77.025 149.488 74.9611C150.939 72.8972 150.376 70.0922 148.233 68.6966C135.506 60.4098 122.056 52.7689 108.258 45.9883C98.3054 41.0972 94.3343 29.3051 99.4066 19.702C101.865 15.0491 106.055 11.5992 111.204 9.98887C116.344 8.38275 121.824 8.79962 126.638 11.1649C165.452 30.2393 200.752 54.9754 231.558 84.6863C262.362 114.397 288.01 148.444 307.788 185.882C312.861 195.485 308.89 207.277 298.937 212.169C289.12 217.146 276.52 213.065 271.706 203.631C246.077 155.118 210.583 113.915 166.211 81.1673C164.157 79.652 161.215 80.025 159.639 82.0028C158.064 83.9801 158.452 86.8122 160.507 88.3287C206.671 121.266 240.058 165.373 267.718 213.857L132.866 260.413C130.429 261.254 129.162 263.838 130.036 266.183C130.907 268.552 133.659 269.744 136.031 268.906L276.615 220.371C284.972 224.369 294.798 224.338 303.201 220.205C317.75 213.055 323.556 195.824 316.144 181.793V181.793ZM44.072 209.948C60.0965 209.948 73.1337 222.496 73.1337 237.92C73.1337 253.344 60.0965 265.892 44.072 265.892C35.5704 265.892 27.48 262.269 21.9845 256.098L34.7523 221.819L39.0178 210.369C40.6746 210.089 42.3664 209.948 44.072 209.948V209.948ZM92.1956 75.8039C108.22 75.8039 121.257 88.3515 121.257 103.776C121.257 119.2 108.22 131.748 92.1956 131.748C84.3208 131.748 76.8892 128.715 71.4368 123.351L83.9565 89.7345L89.0869 75.9615C90.1119 75.8568 91.1513 75.8039 92.1956 75.8039V75.8039Z" fill="black"/>
<path d="M118.581 200.029C116.013 199.948 113.84 201.928 113.771 204.419C113.147 225.162 130.63 242.466 152.193 242.432C173.387 242.432 190.63 225.836 190.63 205.437C190.63 185.038 173.387 168.442 152.193 168.442C140.655 168.442 129.83 173.366 122.494 181.952C120.849 183.876 121.137 186.719 123.137 188.302C125.137 189.886 128.09 189.609 129.735 187.683C135.283 181.189 143.469 177.465 152.193 177.465C168.218 177.465 181.255 190.013 181.255 205.437C181.255 220.861 168.218 233.409 152.193 233.409C135.886 233.435 122.665 220.345 123.143 204.659C123.212 202.167 121.169 200.094 118.581 200.029V200.029Z" fill="black"/>
<path d="M148.405 151.81C148.854 151.81 149.309 151.747 149.755 151.619C150.463 151.413 167.156 146.451 171.707 133.838C176.238 121.284 166.549 107.076 166.134 106.478C164.989 104.826 162.858 104.091 160.884 104.66C160.176 104.865 143.483 109.828 138.931 122.44C134.4 134.994 144.09 149.202 144.505 149.801C145.391 151.078 146.867 151.81 148.405 151.81V151.81ZM147.787 125.4C149.664 120.199 155.77 116.514 160.149 114.588C162.333 118.851 164.752 125.613 162.852 130.877C160.976 136.077 154.868 139.762 150.49 141.688C148.305 137.426 145.887 130.663 147.787 125.4Z" fill="black"/>
<path d="M206.528 162.594C208.96 163.452 211.651 162.249 212.541 159.909C213.431 157.569 212.181 154.978 209.75 154.121C202.285 151.491 194.799 151.616 194.483 151.62C192.421 151.663 190.63 152.998 190.071 154.909C189.872 155.589 185.294 171.698 193.852 182.097C202.111 191.939 217.638 192.166 220.648 192.189C222.71 192.147 224.5 190.812 225.059 188.901C225.141 188.621 227.057 181.954 226.29 174.565C226.032 172.086 223.734 170.275 221.159 170.525C218.583 170.772 216.704 172.984 216.961 175.463C217.25 178.242 217.032 180.943 216.736 182.972C211.873 182.457 204.749 180.804 201.201 176.494C197.697 172.235 197.732 165.396 198.382 160.849C200.63 161.082 203.62 161.57 206.528 162.594Z" fill="black"/>
<path d="M80.8181 157.486C78.8312 156.95 76.7163 157.729 75.6057 159.402C75.212 159.995 66.011 174.085 71.0508 186.382C76.0676 198.623 92.8614 203.268 93.5739 203.46C95.5245 203.994 97.6769 203.227 98.7863 201.544C99.18 200.95 108.381 186.861 103.341 174.564C98.3244 162.323 81.5305 157.678 80.8181 157.486ZM92.6252 193.533C88.5203 191.854 81.9699 188.433 79.7718 183.071C77.7156 178.053 79.7893 171.564 81.7674 167.412C85.8723 169.091 92.4227 172.512 94.6208 177.874C96.677 182.892 94.6033 189.381 92.6252 193.533Z" fill="black"/>
</g>
<defs>
<clipPath id="clip0_301_713">
<rect width="320" height="308" fill="white"/>
</clipPath>
</defs>
</svg>
