<svg width="256" height="200" viewBox="0 0 256 200" fill="none" xmlns="http://www.w3.org/2000/svg">
<g clip-path="url(#clip0_3141_709)">
<path opacity="0.1" d="M89.661 196.126C114.285 196.126 134.247 192.344 134.247 187.68C134.247 183.015 114.285 179.233 89.661 179.233C65.0368 179.233 45.0748 183.015 45.0748 187.68C45.0748 192.344 65.0368 196.126 89.661 196.126Z" fill="#1A73E9"/>
<path opacity="0.1" d="M148.507 28.2052C132.121 27.638 116.514 22.3464 101.612 16.5586C86.709 10.7707 71.9482 4.36 55.9544 1.29391C45.6674 -0.678418 33.9018 -0.959455 25.615 4.54989C17.6371 9.86682 15.0596 19.0195 13.6747 27.519C12.6316 33.9145 12.0188 40.6468 14.8748 46.6346C16.8598 50.792 20.3791 54.2859 22.8147 58.2686C31.2889 72.123 25.2985 89.208 16.1179 102.736C11.8138 109.081 6.81333 115.142 3.48898 121.889C0.164635 128.637 -1.37221 136.394 1.53691 143.296C4.41818 150.132 11.2871 155.257 18.7283 158.865C33.841 166.195 51.6426 168.291 69.0138 169.481C107.455 172.109 146.099 170.972 184.642 169.83C198.906 169.41 213.232 168.982 227.263 166.777C235.056 165.551 243.1 163.607 248.759 158.913C255.939 152.955 257.719 142.868 252.906 135.399C244.834 122.867 222.524 119.755 216.875 106.308C213.771 98.9051 216.959 90.6613 221.473 83.7974C231.155 69.0695 247.382 56.1494 248.235 39.3175C248.822 27.757 241.021 16.1788 228.96 10.7074C216.318 4.97272 198.785 5.6943 189.462 15.1863C179.854 24.9492 162.977 28.709 148.507 28.2052Z" fill="#1A73E9"/>
<path d="M135.485 91.5879L127.73 86.3596L131.642 80.5363L111.159 78.9032L103.799 84.5949L94.5857 79.4298L86.9014 80.354L86.8103 78.3285C86.7152 76.2169 86.503 74.1122 86.1748 72.0241C86.2077 71.3912 86.2305 70.6645 86.228 69.8746C86.228 66.5452 85.7773 62.1321 83.7974 59.1901L84.2531 55.0935L80.5566 50.726C81.1502 49.5435 81.8271 48.4047 82.5821 47.3181C82.7087 47.1358 82.8353 46.9586 82.972 46.7864C87.7699 46.4396 91.555 42.4949 91.555 37.6717C91.555 37.4489 91.555 37.2261 91.5297 37.0058C91.5297 36.9172 91.512 36.8261 91.5019 36.7374C91.9702 36.9906 92.4437 37.2438 92.9172 37.497C93.0058 37.6236 93.1071 37.7502 93.2185 37.8996L93.2412 37.9274L93.383 38.1021L93.4286 38.1553C93.4792 38.2161 93.5324 38.2743 93.5856 38.3351L93.621 38.3756C93.7552 38.525 93.897 38.6769 94.0489 38.8262C94.067 38.841 94.0839 38.857 94.0996 38.8743L94.2894 39.0516L94.3426 39.0997C94.5047 39.244 94.6768 39.3833 94.849 39.5149L94.9047 39.5554L95.1224 39.7048L95.1933 39.7504C95.2769 39.801 95.3629 39.8542 95.4465 39.9023L95.4769 39.92C95.5756 39.9732 95.6769 40.0238 95.7782 40.0719L95.8288 40.0922C95.9149 40.1293 95.9993 40.1648 96.082 40.1985L96.1605 40.2264C96.2491 40.2567 96.3352 40.2846 96.4263 40.3099L96.482 40.3251C96.5934 40.353 96.7048 40.3757 96.8188 40.3935H96.8314C96.9387 40.4108 97.0469 40.4218 97.1555 40.4264H97.2289C97.3259 40.4315 97.4231 40.4315 97.5201 40.4264H97.5834C97.7048 40.4194 97.8258 40.405 97.9455 40.3833C98.5119 40.3089 99.0559 40.1137 99.5405 39.8111C99.6639 39.7286 99.7733 39.6269 99.8646 39.5098C100.371 38.8465 99.814 38.1198 99.814 38.1198C99.6165 37.6489 98.3354 37.3172 98.3354 37.3172C98.3354 37.3172 94.2844 35.626 94.2844 34.279C94.2844 32.932 93.2716 25.9441 82.8175 24.3465C82.8175 24.3465 76.0169 23.9642 74.1054 27.605L74.0649 28.0303C73.5028 28.3823 73.0369 29.0887 72.4824 29.2963C72.2429 29.3477 72.0119 29.433 71.7963 29.5495V29.5014C71.7323 29.5573 71.6798 29.6253 71.6419 29.7014C71.5228 29.9384 71.4514 30.1964 71.4317 30.4609C71.3747 30.7841 71.2625 31.0949 71.1 31.38C71.0547 31.461 71.004 31.5388 70.9481 31.6129L70.9051 31.6813C71.199 31.7042 71.4942 31.6565 71.7659 31.5421C71.7231 31.8887 71.6381 32.2288 71.5127 32.5548C71.6737 32.56 71.8327 32.5189 71.971 32.4363C72.1092 32.3537 72.2208 32.2331 72.2926 32.0889V32.0687L72.3255 32.0231C72.3891 31.9059 72.4417 31.783 72.4824 31.656L72.4546 31.6864C72.5052 31.5218 72.5508 31.3547 72.6065 31.1927C72.632 31.1014 72.6741 31.0156 72.7306 30.9395C72.7981 30.8713 72.8808 30.82 72.9718 30.7897C73.0628 30.7594 73.1597 30.7508 73.2547 30.7648L73.1509 32.9599H73.1964C73.1354 33.1196 73.0609 33.2737 72.9736 33.4207C72.6141 34.003 71.9609 34.4005 71.7203 35.0386C71.6166 35.3463 71.577 35.672 71.6039 35.9956C71.6039 36.1855 71.6267 36.3779 71.6419 36.5678V36.5526C71.6773 37.059 71.6874 37.5401 71.414 37.9477C71.2266 38.2262 70.9253 38.4363 70.8215 38.7528C70.7928 38.841 70.78 38.9336 70.7836 39.0263C70.8039 39.3037 70.8618 39.5771 70.9557 39.839C70.9568 39.834 70.9568 39.8288 70.9557 39.8238C71.0189 40.0164 71.0337 40.2216 70.9988 40.4213C70.8848 40.9277 70.2696 41.3505 70.3 41.8341C70.2982 41.8977 70.3077 41.9611 70.3278 42.0215C70.4462 42.2577 70.6512 42.4391 70.9 42.5278C71.2904 42.7498 71.7387 42.8487 72.1862 42.8114C72.3539 42.7811 72.5161 42.7256 72.6673 42.6468C72.49 43.0545 72.3077 43.457 72.1229 43.8393C72.0951 43.9001 72.0647 43.9609 72.0343 44.0216C72.0343 44.0216 70.4696 42.976 69.5809 45.1078C69.3215 45.5508 69.1359 46.0331 69.0315 46.5358C68.987 46.7369 68.9243 46.9335 68.8441 47.1232C68.4496 47.7911 67.8591 48.3215 67.1529 48.6423C65.34 49.4728 58.0179 58.6052 57.8887 60.97C57.8254 61.8931 57.6693 62.8075 57.4229 63.6993C56.8465 65.7996 56.6984 67.9944 56.9874 70.1531C57.0779 70.8507 57.2278 71.5394 57.4355 72.2115C58.2128 74.5737 58.7319 78.9817 58.7319 78.9817L59.5724 86.633C59.5412 87.689 59.5869 88.7459 59.7092 89.7953C58.8509 90.7752 55.405 94.8591 56.7216 95.9706C57.7343 96.8466 59.5066 96.7023 60.5016 96.5225C59.6636 98.5961 58.3445 102.201 58.1698 104.678C57.9166 108.341 58.6027 113.195 59.6889 115.058C60.7751 116.922 64.3957 121.702 64.3957 121.702C64.3957 121.702 64.226 128.259 65.5198 130.642C66.8136 133.024 67.3351 137.967 67.3351 137.967C67.3351 137.967 68.5429 142.139 67.9377 143.674C67.3326 145.208 69.0593 146.484 67.2465 147.504C65.4337 148.525 63.1145 171.522 63.1145 171.522C63.1145 171.522 62.1803 186.594 63.1145 187.361C63.1645 187.397 63.2179 187.429 63.274 187.455V192.518C63.274 192.518 62.6259 193.582 65.2615 193.797C67.0668 193.941 72.1837 194.268 75.2194 194.458L77.5715 194.605C77.5715 194.605 83.1416 195.714 85.6026 194.605C88.0636 193.496 92.426 193.521 91.7778 190.592C91.6919 190.193 91.5768 189.801 91.4335 189.419C90.722 187.601 89.5143 187.394 87.2888 186.887C87.1597 186.86 87.0356 186.834 86.9217 186.814C84.5772 186.406 83.8075 187.498 82.4935 186.077C81.3516 184.849 77.7158 183.475 76.4777 183.039C76.5081 182.948 76.5461 182.859 76.5765 182.766C76.2259 182.706 75.8998 182.547 75.6372 182.307L78.9919 182.52L80.9895 182.644C80.9895 182.644 85.7241 183.588 87.8256 182.644C89.927 181.7 93.6236 181.725 93.0716 179.236C92.9989 178.897 92.9016 178.564 92.7804 178.239C92.1753 176.694 91.1474 176.525 89.2561 176.097C89.1472 176.074 89.0459 176.051 88.9447 176.033C86.9521 175.686 86.2989 176.613 85.1823 175.408C84.2253 174.38 81.2047 173.228 80.1186 172.836C80.1186 172.273 79.359 171.473 78.8805 170.671C78.3184 169.734 79.3565 166.455 79.3565 166.455L79.9489 152.852C80.1745 152.751 80.4132 152.683 80.6578 152.649C80.6578 152.649 83.3366 150.092 82.7314 147.368C82.6082 146.544 82.5439 145.712 82.539 144.879C83.4201 144.061 84.6329 142.853 84.9772 142.109C85.5393 140.896 84.9772 135.02 84.9772 135.02V112.549L89.4586 113.002L93.5248 113.42L94.7629 113.547L98.8291 113.957L108.174 114.901L116.595 113.306L120.239 112.618L127.73 111.2V92.869L135.485 91.5879ZM73.8066 30.8458L73.285 30.7901C73.4572 30.7977 73.6395 30.8306 73.8066 30.8458Z" fill="url(#paint0_linear_3141_709)"/>
<path d="M117.309 103.49C114.777 107.113 105.675 105.194 105.675 105.194L98.6213 98.5937L97.6719 97.7L99.2644 94.3174C99.2644 94.3174 99.7708 94.4566 100.639 94.7048C105.199 96.0289 119.446 100.445 117.309 103.49Z" fill="#EFB7B9"/>
<path opacity="0.1" d="M100.634 94.7048C100.323 95.7884 99.4695 97.4113 98.6213 98.5937L97.6719 97.7L99.2644 94.3174C99.2644 94.3174 99.7759 94.4566 100.634 94.7048Z" fill="black"/>
<path d="M76.4422 56.5595C76.4422 56.5595 69.9404 59.4433 70.2594 66.5249C70.489 71.0873 70.9861 75.6322 71.7481 80.1363C71.7481 80.1363 70.4189 90.7929 75.9536 93.54C81.4883 96.2871 86.6102 98.5455 86.6102 98.5455C86.6102 98.5455 95.2692 99.4772 96.3453 99.8621C97.4213 100.247 100.784 94.3628 100.163 93.4463C99.543 92.5298 91.5955 90.6081 90.5827 89.0788C89.57 87.5496 87.228 86.6052 87.228 86.6052C87.228 86.6052 84.8101 85.1418 84.6455 83.8201C84.4809 82.4985 85.119 81.5136 85.281 80.9338C85.443 80.354 85.8532 74.7561 85.8532 74.7561C85.8532 74.7561 88.5825 54.8302 76.4422 56.5595Z" fill="#DCE6F2"/>
<path opacity="0.1" d="M80.7338 79.8452C80.7338 79.8452 71.814 81.339 72.6774 84.4608C72.6774 84.4608 75.9157 81.0909 80.7338 79.8452Z" fill="black"/>
<path opacity="0.1" d="M80.8021 81.1084C80.8021 81.1084 75.8979 85.1113 76.8575 85.3164C77.8171 85.5214 80.8021 81.1084 80.8021 81.1084Z" fill="black"/>
<path opacity="0.1" d="M83.1592 82.5034C83.1592 82.5034 81.8452 85.1948 82.6529 85.0125C83.4605 84.8302 83.1592 82.5034 83.1592 82.5034Z" fill="black"/>
<path opacity="0.1" d="M100.963 94.9904L100.421 94.836C100.576 94.3296 100.619 93.9194 100.492 93.7295C99.872 92.813 91.9296 90.8938 90.9193 89.3621C89.9091 87.8303 87.5646 86.8884 87.5646 86.8884C87.5646 86.8884 85.1467 85.425 84.9821 84.1034C84.8175 82.7817 85.4556 81.7968 85.6176 81.217C85.7796 80.6372 86.1898 75.0367 86.1898 75.0367C86.1898 75.0367 88.9116 55.1135 76.7713 56.8427C76.7713 56.8427 70.2694 59.7291 70.5859 66.8107C70.8155 71.3731 71.3135 75.9181 72.0772 80.422C72.0772 80.422 70.7479 91.0787 76.2826 93.8257C81.8173 96.5728 86.9392 98.8313 86.9392 98.8313C86.9392 98.8313 95.5957 99.7604 96.6743 100.148C97.0819 100.295 97.8187 99.5376 98.5403 98.497L98.9504 98.8794L106.004 105.477C106.004 105.477 115.106 107.399 117.638 103.776C119.778 100.728 105.533 96.312 100.963 94.9904Z" fill="black"/>
<path d="M72.7 29.9801C72.4521 30.0285 72.2147 30.1202 71.9986 30.251C71.7455 30.4611 71.7455 30.8207 71.6822 31.1346C71.6078 31.5713 71.4346 31.9853 71.1758 32.3448C71.4639 32.366 71.7529 32.3183 72.0189 32.2056C71.9756 32.5521 71.8905 32.8922 71.7657 33.2183C71.9235 33.2224 72.079 33.1808 72.2138 33.0986C72.3485 33.0164 72.4566 32.8971 72.5253 32.755C72.6592 32.4697 72.7652 32.1721 72.8418 31.8663C72.8655 31.7749 72.9068 31.6889 72.9633 31.6131C73.1962 31.3372 73.6292 31.4612 73.9887 31.4967C74.2879 31.5219 74.5884 31.4667 74.8591 31.3367C75.1297 31.2067 75.3607 31.0067 75.5281 30.7574C75.9104 30.1776 75.9332 28.6939 75.0217 28.5369C74.0697 28.3799 73.4773 29.6915 72.7 29.9801Z" fill="#965D7B"/>
<g opacity="0.1">
<path opacity="0.1" d="M71.9735 30.5623C71.9963 30.4382 72.0115 30.3091 72.0394 30.1851C71.7988 30.3952 71.7862 30.7522 71.7229 31.0687C71.691 31.2513 71.6409 31.4302 71.5735 31.6029C71.7728 31.2852 71.9087 30.9318 71.9735 30.5623Z" fill="black"/>
<path opacity="0.1" d="M72.0544 32.6539C72.1805 32.3281 72.2656 31.9879 72.3076 31.6411C72.0541 31.7478 71.7797 31.7954 71.505 31.7804C71.4251 31.9584 71.3275 32.1281 71.2139 32.2867C71.501 32.309 71.7892 32.2621 72.0544 32.15C72.0124 32.4968 71.9273 32.837 71.8013 33.1628C71.959 33.1665 72.1144 33.1248 72.2491 33.0426C72.3837 32.9605 72.4919 32.8413 72.5608 32.6994C72.6239 32.5843 72.6748 32.463 72.7127 32.3374C72.6384 32.4412 72.5392 32.5246 72.4241 32.5799C72.3091 32.6353 72.1819 32.6607 72.0544 32.6539Z" fill="black"/>
<path opacity="0.1" d="M74.2774 30.9318C73.9178 30.8964 73.4824 30.7723 73.2494 31.0483C73.194 31.1247 73.1528 31.2104 73.1279 31.3015C73.1051 31.3673 73.0849 31.4357 73.0671 31.504C73.3077 31.3141 73.6976 31.4154 74.0242 31.4483C74.3233 31.4728 74.6235 31.4171 74.894 31.2872C75.1646 31.1573 75.3956 30.9577 75.5636 30.709C75.6403 30.5861 75.6975 30.452 75.7332 30.3115C75.5598 30.5261 75.3364 30.6949 75.0826 30.8031C74.8287 30.9112 74.5523 30.9554 74.2774 30.9318Z" fill="black"/>
</g>
<path d="M80.3209 50.8906L84.182 55.5341L83.6782 60.2206L79.012 52.9161L80.3209 50.8906Z" fill="#DCE6F2"/>
<path opacity="0.1" d="M84.1795 55.5341L83.706 59.942L83.6757 60.2206L79.4652 53.6276L79.012 52.9161L79.1436 52.711L80.3184 50.8906L80.5792 51.2046L84.1795 55.5341Z" fill="black"/>
<path d="M86.1849 44.6042C84.8784 44.9789 83.6302 46.2651 82.544 47.8272C81.8099 48.9051 81.1533 50.0337 80.5793 51.2047C80.2223 51.9187 79.9084 52.6049 79.6476 53.2024L79.4653 53.6277C79.0247 54.6683 78.7792 55.3646 78.7792 55.3646C78.7792 55.3646 68.7783 47.8449 70.3607 47.3386C70.8924 47.1689 71.5912 46.0296 72.2824 44.594L72.3685 44.4117C72.8065 43.4901 73.2369 42.4622 73.6192 41.495C74.4015 39.5075 74.9813 37.7808 74.9813 37.7808C74.9813 37.7808 90.1726 43.4648 86.1849 44.6042Z" fill="#EFB7B9"/>
<path d="M92.1676 37.3579C92.1676 37.3579 94.4767 41.5355 97.5782 40.9658C100.68 40.3962 99.4037 38.7226 99.4037 38.7226L92.1676 37.3579Z" fill="#444053"/>
<path d="M87.6939 181.966C85.6482 182.9 81.0224 181.966 81.0224 181.966L79.0729 181.844C76.541 181.682 72.3027 181.409 70.8038 181.287C68.6163 181.107 69.153 180.211 69.153 180.211V174.795L79.7666 172.106C79.7666 172.106 83.9619 173.542 85.1114 174.795C86.2026 175.99 86.8407 175.071 88.7877 175.416C88.8839 175.433 88.9852 175.454 89.0915 175.479C90.9398 175.902 91.9424 176.069 92.5348 177.601C92.6539 177.922 92.7495 178.252 92.8209 178.588C93.3678 181.054 89.7371 181.036 87.6939 181.966Z" fill="#A36468"/>
<path opacity="0.1" d="M92.5348 177.601C92.1545 177.838 91.7547 178.043 91.3398 178.213C89.9473 178.849 88.6231 179.623 87.2154 180.224C85.8077 180.824 84.2911 181.251 82.7669 181.138C81.9693 181.079 81.1541 180.884 80.392 181.112C79.9207 181.294 79.4768 181.54 79.0729 181.844C76.541 181.682 72.3027 181.408 70.8038 181.287C68.6163 181.107 69.153 180.211 69.153 180.211V179.578C69.2315 179.578 69.3201 179.555 69.4214 179.548C69.9454 179.539 70.4671 179.617 70.9658 179.778C72.0647 180.077 73.1584 180.37 74.2573 180.664C74.3476 180.323 74.5065 180.004 74.7241 179.726C74.9418 179.449 75.2136 179.218 75.5232 179.049C76.1504 178.716 76.8543 178.554 77.5639 178.58C79.2678 178.603 80.8806 179.411 82.5821 179.492C83.0577 179.536 83.5366 179.455 83.9721 179.259C84.205 179.142 84.4101 178.973 84.6379 178.844C85.0026 178.667 85.3879 178.537 85.7849 178.456C86.9006 178.179 87.9961 177.825 89.0636 177.398C89.3675 177.279 89.7219 177.064 89.6814 176.74C89.6283 176.309 88.9522 176.259 88.775 175.864C88.7437 175.792 88.7293 175.715 88.7328 175.637C88.7363 175.56 88.7577 175.484 88.7953 175.416C88.8915 175.433 88.9928 175.454 89.0991 175.479C90.9398 175.902 91.9424 176.069 92.5348 177.601Z" fill="black"/>
<path d="M85.5316 193.815C83.1263 194.913 77.6828 193.815 77.6828 193.815L75.3914 193.68C72.4241 193.49 67.4262 193.174 65.6615 193.025C63.0866 192.812 63.7195 191.759 63.7195 191.759V185.376L76.2092 182.211C76.2092 182.211 81.1464 183.9 82.4984 185.376C83.7821 186.781 84.5239 185.7 86.8254 186.105C86.9393 186.125 87.0583 186.151 87.1824 186.178C89.3572 186.685 90.5371 186.875 91.2334 188.677C91.3743 189.056 91.4869 189.444 91.5701 189.839C92.198 192.741 87.9369 192.718 85.5316 193.815Z" fill="#A36468"/>
<path opacity="0.1" d="M91.2283 188.677C90.7809 188.957 90.3109 189.198 89.8231 189.399C88.185 190.146 86.6253 191.057 84.9695 191.764C83.3137 192.47 81.5287 192.971 79.7336 192.84C78.7968 192.771 77.8372 192.536 76.9485 192.809C76.3917 193.026 75.8677 193.319 75.3914 193.68C72.4241 193.49 67.4262 193.174 65.6615 193.025C63.0866 192.812 63.7195 191.759 63.7195 191.759V191.014C63.8244 190.997 63.93 190.985 64.036 190.979C64.6528 190.968 65.2672 191.059 65.8539 191.25L69.7251 192.293C69.833 191.891 70.0217 191.514 70.2799 191.187C70.538 190.861 70.8601 190.59 71.2265 190.391C71.9645 189.998 72.7936 189.808 73.6293 189.84C75.6345 189.867 77.5309 190.817 79.5336 190.913C80.0913 190.964 80.6528 190.871 81.1641 190.642C81.4401 190.503 81.6705 190.303 81.949 190.153C82.3772 189.944 82.8308 189.791 83.2985 189.698C84.6042 189.368 85.8865 188.952 87.1368 188.452C87.4938 188.31 87.9115 188.057 87.8634 187.677C87.8001 187.171 87.0051 187.11 86.795 186.644C86.7596 186.56 86.7435 186.469 86.7478 186.378C86.7522 186.287 86.777 186.198 86.8203 186.118C86.9342 186.138 87.0532 186.163 87.1773 186.191C89.3522 186.677 90.532 186.875 91.2283 188.677Z" fill="black"/>
<path d="M80.0881 150.016L79.4121 165.923C79.4121 165.923 78.3993 169.172 78.9487 170.101C79.4981 171.03 80.4248 171.957 80.0881 172.506C79.7513 173.056 75.7003 178.995 74.3914 176.717C73.0824 174.438 71.7911 164.564 71.7911 164.564L72.9988 152.368L80.0881 150.016Z" fill="#444053"/>
<path d="M83.0201 110.382L84.8988 112.893V134.738C84.8988 134.738 85.4482 140.562 84.8988 141.764C84.3493 142.967 81.5643 145.372 81.5643 145.372L79.2223 133.346L79.7287 120.623L83.0201 110.382Z" fill="#444053"/>
<path opacity="0.1" d="M80.0881 150.016L79.4121 165.923C79.4121 165.923 78.3993 169.172 78.9487 170.101C79.4981 171.03 80.4248 171.957 80.0881 172.506C79.7513 173.056 75.7003 178.995 74.3914 176.717C73.0824 174.438 71.7911 164.564 71.7911 164.564L72.9988 152.368L80.0881 150.016Z" fill="black"/>
<path opacity="0.1" d="M83.0201 110.382L84.8988 112.893V134.738C84.8988 134.738 85.4482 140.562 84.8988 141.764C84.3493 142.967 81.5643 145.372 81.5643 145.372L79.2223 133.346L79.7287 120.623L83.0201 110.382Z" fill="black"/>
<path d="M84.8987 101.065V112.881L82.7897 122.079C82.7897 122.079 82.1137 144.276 82.7036 146.975C83.2935 149.674 80.6781 152.209 80.6781 152.209C80.6781 152.209 79.159 152.378 79.159 153.558C79.159 154.738 76.6271 158.115 76.6271 158.115L76.7106 164.698C76.7106 164.698 77.8095 177.021 76.1207 179.383C74.432 181.745 76.7106 182.085 76.7106 182.085C74.6016 189.004 64.4741 187.402 63.5601 186.642C62.6461 185.882 63.5601 170.944 63.5601 170.944C63.5601 170.944 65.8236 148.158 67.5959 147.145C69.3682 146.132 67.682 144.866 68.2719 143.347C68.8618 141.828 67.682 137.693 67.682 137.693C67.682 137.693 67.1756 132.797 65.9097 130.434C64.6437 128.072 64.8109 121.573 64.8109 121.573C64.8109 121.573 61.2662 116.846 60.213 114.99C59.1597 113.134 58.4812 108.324 58.7344 104.693C58.9065 102.24 60.1953 98.6671 61.013 96.6112C61.4055 95.6263 61.6891 94.9883 61.6891 94.9883L61.9296 95.0516L75.7587 98.6721L84.8987 101.065Z" fill="#444053"/>
<path opacity="0.1" d="M86.1848 44.6038C84.8783 44.9785 83.6301 46.2647 82.544 47.8269H82.2604C80.6683 47.828 79.1041 47.4088 77.726 46.6117C76.3478 45.8146 75.2045 44.6678 74.4116 43.2872C74.0802 42.7152 73.8136 42.108 73.6166 41.4769C74.3989 39.4894 74.9787 37.7627 74.9787 37.7627C74.9787 37.7627 90.1725 43.4645 86.1848 44.6038Z" fill="black"/>
<path d="M91.312 38.2741C91.3142 39.6594 90.9984 41.0268 90.389 42.2708C89.7795 43.5149 88.8926 44.6025 87.7966 45.4498C86.7006 46.2971 85.4247 46.8815 84.0672 47.158C82.7098 47.4345 81.3069 47.3958 79.9668 47.0447C78.6267 46.6937 77.385 46.0397 76.3375 45.1331C75.2899 44.2266 74.4644 43.0917 73.9246 41.8159C73.3848 40.54 73.145 39.1573 73.2237 37.7742C73.3025 36.3911 73.6977 35.0445 74.3788 33.8382C74.6532 33.3481 74.9737 32.8852 75.3359 32.4558C75.9329 31.7445 76.6347 31.1281 77.4171 30.6278C78.7386 29.788 80.2553 29.3054 81.8191 29.2271C83.3829 29.1489 84.9403 29.4776 86.3391 30.1812C87.7379 30.8848 88.9302 31.9392 89.7996 33.2414C90.669 34.5436 91.1857 36.0491 91.2993 37.6107C91.3044 37.8335 91.312 38.0538 91.312 38.2741Z" fill="#EFB7B9"/>
<path opacity="0.1" d="M83.7062 59.9421L83.6758 60.2206L79.4653 53.6378C79.0247 54.6784 78.7792 55.3746 78.7792 55.3746C78.7792 55.3746 68.7783 47.8448 70.3607 47.3385C70.8924 47.1688 71.5912 46.0295 72.2824 44.5939L72.3685 44.4116C73.1027 46.5992 77.3689 50.9717 79.1437 52.7238C79.3488 52.9263 79.5185 53.0934 79.6501 53.2149L79.921 53.4681L80.0628 53.6099C80.7084 54.2758 83.4327 57.2128 83.7062 59.9421Z" fill="black"/>
<path d="M86.8532 82.2781L86.3924 97.1072L86.3113 99.748C86.3113 99.748 80.8526 99.2416 75.7585 98.6846C71.6569 98.2365 67.7907 97.7529 67.1957 97.4693C66.4362 97.1123 64.8082 96.8363 63.5245 96.6616C62.532 96.5274 61.7522 96.4566 61.7522 96.4566C61.7522 96.4566 61.4611 96.5426 61.0129 96.6237C60.0356 96.8009 58.319 96.9452 57.3189 96.0768C56.0403 94.9653 59.4001 90.9269 60.2382 89.9572L60.423 89.7471L60.1065 86.8228L59.2836 79.2398C59.2836 79.2398 58.7773 74.8724 58.0177 72.5304C57.8146 71.8645 57.6681 71.1827 57.5797 70.4922C57.2975 68.3532 57.4421 66.1795 58.005 64.0967C58.2456 63.2117 58.3982 62.3051 58.4608 61.3902C58.5874 59.0482 65.7399 49.9968 67.5122 49.1739C68.3095 48.8021 68.951 48.1624 69.325 47.3661C69.4485 47.1158 69.5412 46.8514 69.601 46.5787C70.3606 43.2873 72.2823 44.5937 72.2823 44.5937C72.7456 47.1687 79.9184 53.9844 79.9184 53.9844L80.0602 54.1262C80.7716 54.8554 83.9415 58.2785 83.7162 61.2003C83.6712 62.2877 83.8335 63.3738 84.1947 64.4006C85.6537 68.9946 86.4924 73.7629 86.6886 78.579L86.8532 82.2781Z" fill="#DCE6F2"/>
<path opacity="0.1" d="M76.6904 64.6689C76.6904 64.6689 74.9181 68.9731 73.5889 69.6694C72.2596 70.3656 77.3234 71.1379 76.6904 64.6689Z" fill="black"/>
<path opacity="0.1" d="M78.0196 72.7075C78.0196 72.7075 73.9686 73.2139 73.9686 73.9735C73.9686 74.733 78.0196 72.7075 78.0196 72.7075Z" fill="black"/>
<path opacity="0.1" d="M82.2604 77.645C82.2604 77.645 76.3738 90.1778 74.7281 90.5575C73.0823 90.9373 82.2604 77.645 82.2604 77.645Z" fill="black"/>
<path opacity="0.1" d="M79.807 54.6199L74.9382 56.7365L69.0618 47.8598C69.1852 47.6094 69.2779 47.345 69.3377 47.0724C70.0973 43.781 72.019 45.0874 72.019 45.0874C72.4823 47.6623 79.6551 54.4781 79.6551 54.4781L79.807 54.6199Z" fill="black"/>
<path d="M80.0602 54.1135L75.1914 56.2302L69.3149 47.3534C69.4384 47.1031 69.5311 46.8387 69.5909 46.566C70.3505 43.2746 72.2722 44.5811 72.2722 44.5811C72.7355 47.156 79.9083 53.9718 79.9083 53.9718L80.0602 54.1135Z" fill="#DCE6F2"/>
<path opacity="0.1" d="M86.3114 99.7479C86.3114 99.7479 80.8527 99.2415 75.7586 98.6845L84.8986 101.077V103.862C84.4986 104.224 84.1517 104.412 83.9264 104.315C82.8731 103.872 74.2774 102.48 74.2774 102.48C74.2774 102.48 69.2846 99.9479 63.8968 96.9096C63.766 96.8372 63.6392 96.7577 63.517 96.6716C62.8888 96.2451 62.3474 95.7029 61.9219 95.074C60.9269 93.6334 60.4408 91.7826 60.2306 89.9673C60.1125 88.9269 60.0685 87.8794 60.099 86.8328C60.1251 85.646 60.2333 84.4625 60.423 83.2907C59.902 78.7522 59.6484 74.1869 59.6635 69.6186C59.7268 62.5294 66.3729 59.9975 66.3729 59.9975C78.5892 58.9215 74.8015 78.67 74.8015 78.67C74.8015 78.67 74.0951 84.2402 73.9027 84.8098C73.7103 85.3795 73.0191 86.329 73.1128 87.6582C73.2064 88.9874 75.5408 90.5774 75.5408 90.5774C75.5408 90.5774 77.8195 91.6459 78.7588 93.2283C79.4424 94.3955 83.8833 95.9779 86.3924 97.1071L86.3114 99.7479Z" fill="black"/>
<path opacity="0.1" d="M90.4029 32.6537C90.4075 33.0707 90.3211 33.4837 90.1497 33.8639C90.0199 34.1742 89.8693 34.4753 89.699 34.7653C89.4325 35.2987 89.0543 35.7684 88.5901 36.1426C88.0052 36.5604 87.2659 36.6768 86.5646 36.8465C85.8632 37.0161 85.1341 37.287 84.734 37.8845C84.5172 38.2687 84.3722 38.6891 84.3061 39.1252C84.2391 39.5609 84.0651 39.9732 83.7998 40.3253C83.6616 40.4972 83.4703 40.6183 83.2558 40.6696C83.0413 40.7209 82.8159 40.6996 82.6148 40.6088C82.4031 40.4661 82.2425 40.2594 82.1566 40.0189C81.8679 39.3682 81.7945 38.6466 81.6781 37.9453C81.5616 37.244 81.397 36.5224 80.9666 35.9578C80.5362 35.3932 79.7741 35.021 79.0981 35.2413C78.8718 35.3284 78.6655 35.4603 78.4914 35.6291C78.3174 35.7979 78.1793 36.0001 78.0853 36.2236C77.8982 36.6711 77.7697 37.1408 77.703 37.6212C77.3891 39.3395 77.0186 41.0477 76.5915 42.7457C76.5785 42.8153 76.5499 42.8811 76.508 42.9382C76.4407 43.0052 76.3498 43.0434 76.2548 43.0445C75.6877 43.1204 75.1433 42.7229 74.5711 42.766C74.5121 42.7699 74.4537 42.7792 74.3964 42.7938C73.4713 41.186 73.0628 39.3326 73.2263 37.4848C73.3897 35.6371 74.1173 33.8842 75.3104 32.4638L75.356 32.4511C75.7366 32.316 76.0825 32.0981 76.3687 31.8131C76.7342 31.4474 77.0727 31.0556 77.3815 30.6409L77.584 30.3877C78.166 29.6866 78.8289 29.0568 79.5589 28.5115C79.7581 28.3483 79.9867 28.2246 80.2324 28.147C80.4426 28.106 80.658 28.0992 80.8704 28.1267C81.7448 28.2317 82.6263 28.2647 83.5061 28.2254C84.1191 28.1291 84.737 28.0665 85.3569 28.0381C86.9595 28.0837 88.3267 29.2154 89.3395 30.456C89.8838 31.0915 90.37 31.8232 90.4029 32.6537Z" fill="black"/>
<path d="M73.1964 34.0791C72.8445 34.6564 72.209 35.0488 71.971 35.6818C71.6216 36.6009 72.2115 37.7453 71.6697 38.5656C71.4899 38.8416 71.1937 39.0466 71.0924 39.3631C70.9203 39.8974 71.3912 40.467 71.2697 41.0164C71.1481 41.5659 70.424 42.0292 70.6164 42.5659C70.7302 42.8 70.9296 42.9814 71.1734 43.0723C71.5571 43.2924 71.9987 43.3904 72.4394 43.3534C73.1306 43.2394 73.6446 42.5609 74.3459 42.5102C74.9156 42.4697 75.4599 42.8647 76.027 42.7913C76.1221 42.788 76.2124 42.7491 76.2802 42.6824C76.3233 42.626 76.3519 42.5599 76.3638 42.49C76.7891 40.7936 77.1605 39.0855 77.4778 37.3655C77.5425 36.885 77.6702 36.415 77.8576 35.9679C77.9523 35.7448 78.0907 35.543 78.2646 35.3743C78.4386 35.2056 78.6445 35.0734 78.8703 34.9855C79.5463 34.7678 80.3059 35.1374 80.7389 35.702C81.1718 36.2666 81.3364 36.9882 81.4528 37.6896C81.5693 38.3909 81.6427 39.1125 81.9288 39.7632C82.0158 40.0045 82.1771 40.212 82.3896 40.3556C82.7694 40.5759 83.2809 40.4012 83.572 40.0721C83.8388 39.7198 84.0129 39.3063 84.0784 38.8694C84.1444 38.4341 84.2895 38.0145 84.5063 37.6313C84.9063 37.0338 85.638 36.7629 86.3368 36.5933C87.0356 36.4236 87.7724 36.3046 88.3623 35.8869C88.826 35.5131 89.2041 35.0443 89.4713 34.5121C89.846 33.8588 90.1954 33.1499 90.165 32.398C90.1321 31.5776 89.646 30.8459 89.1269 30.2079C88.1142 28.9673 86.7445 27.8355 85.1418 27.7925C84.5217 27.8184 83.9037 27.881 83.291 27.9798C82.4111 28.0194 81.5295 27.9855 80.6553 27.8786C80.4427 27.8531 80.2275 27.8608 80.0173 27.9013C79.7713 27.9765 79.5431 28.1005 79.3463 28.2659C78.6156 28.8103 77.9519 29.4392 77.3689 30.1395C76.9931 30.6379 76.5854 31.1115 76.1486 31.5574C75.8622 31.8428 75.5164 32.0615 75.1358 32.1979C74.8826 32.2688 74.6295 32.2182 74.3889 32.2967C73.642 32.5321 73.5433 33.5069 73.1964 34.0791Z" fill="#965D7B"/>
<path opacity="0.1" d="M97.5782 40.9633C95.5527 41.3355 93.8741 39.6974 92.9449 38.5023C92.6595 38.1394 92.3998 37.757 92.1676 37.3579L99.1201 38.6694L99.4011 38.7226C99.4011 38.7226 100.68 40.3962 97.5782 40.9633Z" fill="black"/>
<g opacity="0.1">
<path opacity="0.1" d="M71.2696 40.2921C71.2979 39.9609 71.2476 39.6278 71.1228 39.3198C71.1228 39.3451 71.1 39.3705 71.0924 39.3958C70.9835 39.7351 71.1303 40.087 71.224 40.4389C71.2441 40.3916 71.2594 40.3424 71.2696 40.2921Z" fill="black"/>
<path opacity="0.1" d="M71.8721 36.1475C71.846 36.4976 71.8528 36.8493 71.8923 37.1982C71.9183 36.8481 71.9115 36.4963 71.8721 36.1475Z" fill="black"/>
<path opacity="0.1" d="M89.456 33.78C89.1895 34.3134 88.8113 34.7832 88.347 35.1574C87.7622 35.5751 87.0254 35.6916 86.3215 35.8612C85.6177 36.0309 84.891 36.3018 84.491 36.8993C84.2745 37.2836 84.1296 37.7039 84.0631 38.1399C83.9971 38.5767 83.8231 38.9901 83.5567 39.3426C83.2655 39.6717 82.7541 39.8489 82.3743 39.6261C82.1618 39.4825 82.0005 39.275 81.9135 39.0337C81.6274 38.383 81.5515 37.6639 81.4375 36.9601C81.3236 36.2562 81.154 35.5371 80.7235 34.9725C80.2931 34.4079 79.531 34.0357 78.855 34.256C78.629 34.3435 78.4228 34.4756 78.2489 34.6443C78.0749 34.8131 77.9366 35.0151 77.8423 35.2384C77.6548 35.6856 77.5272 36.1555 77.4625 36.636C77.1469 38.356 76.7755 40.0641 76.3485 41.7605C76.3366 41.8304 76.3079 41.8965 76.2649 41.9529C76.1971 42.0196 76.1068 42.0585 76.0117 42.0618C75.4446 42.1352 74.9002 41.7402 74.3306 41.7807C73.6292 41.8314 73.1153 42.5099 72.4241 42.6213C71.9832 42.6609 71.5409 42.5627 71.1581 42.3403C70.9821 42.2646 70.8242 42.1524 70.6948 42.0111C70.6356 42.096 70.5963 42.1931 70.5801 42.2953C70.5639 42.3975 70.5711 42.5021 70.6011 42.6011C70.7126 42.8368 70.9129 43.0188 71.1581 43.1074C71.5409 43.3298 71.9832 43.428 72.4241 43.3885C73.1153 43.2771 73.6292 42.5985 74.3306 42.5479C74.9002 42.5074 75.4446 42.9024 76.0117 42.8289C76.1068 42.8256 76.1971 42.7868 76.2649 42.7201C76.3079 42.6636 76.3366 42.5976 76.3485 42.5276C76.7738 40.8397 77.1452 39.1316 77.4625 37.4031C77.5272 36.9226 77.6548 36.4527 77.8423 36.0055C77.9366 35.7823 78.0749 35.5802 78.2489 35.4115C78.4228 35.2427 78.629 35.1107 78.855 35.0232C79.531 34.8029 80.2906 35.1751 80.7235 35.7397C81.1565 36.3043 81.3211 37.0259 81.4375 37.7272C81.554 38.4285 81.6274 39.1501 81.9135 39.8008C82.0005 40.0421 82.1618 40.2496 82.3743 40.3933C82.7541 40.6136 83.2655 40.4389 83.5567 40.1097C83.8231 39.7573 83.9971 39.3439 84.0631 38.9071C84.1296 38.4711 84.2745 38.0507 84.491 37.6665C84.891 37.0689 85.6227 36.8006 86.3215 36.6284C87.0203 36.4562 87.7571 36.3423 88.347 35.9245C88.8113 35.5504 89.1895 35.0806 89.456 34.5472C89.8307 33.8965 90.1801 33.1876 90.1497 32.4356C90.1447 32.3389 90.1346 32.2426 90.1193 32.147C89.9972 32.7265 89.7725 33.2795 89.456 33.78Z" fill="black"/>
</g>
<path opacity="0.1" d="M90.1598 33.8563C90.8091 35.0107 91.1939 36.2949 91.2865 37.6162C89.0306 36.3502 86.9089 34.9602 85.8379 34.4766C83.972 33.6335 76.9941 33.7601 74.3711 33.8386C74.6455 33.3485 74.9659 32.8856 75.3281 32.4562C75.9275 31.7443 76.6319 31.1279 77.4169 30.6282C78.4566 29.9684 79.62 29.5275 80.8358 29.3325C82.0517 29.1375 83.2946 29.1926 84.4884 29.4942C85.6823 29.7959 86.8022 30.3379 87.7795 31.087C88.7568 31.8362 89.571 32.7767 90.1725 33.8513L90.1598 33.8563Z" fill="black"/>
<path opacity="0.1" d="M98.2112 39.8898C96.9933 40.2645 95.0058 39.5404 92.9449 38.5023C92.6595 38.1394 92.3998 37.757 92.1676 37.3579L99.1201 38.6694C99.5809 38.9834 99.6974 39.4315 98.2112 39.8898Z" fill="black"/>
<path d="M82.7997 25.0784C82.7997 25.0784 76.1536 24.6986 74.285 28.3065L73.9837 31.5043L73.4774 31.4486L73.3761 33.6234C73.3761 33.6234 83.534 33.1804 85.8455 34.2235C88.1571 35.2666 95.3401 40.5228 98.2188 39.6366C101.098 38.7505 97.9656 37.9276 97.9656 37.9276C97.9656 37.9276 94.0032 36.249 94.0032 34.9324C94.0032 33.6158 93.0209 26.6608 82.7997 25.0784Z" fill="#444053"/>
<path opacity="0.1" d="M69.981 143.62C69.981 143.62 74.2218 147.734 76.0574 147.418C76.0574 147.418 70.8671 146.975 69.981 143.62Z" fill="black"/>
<path opacity="0.1" d="M69.0948 145.527C69.0948 145.527 69.4746 147.644 70.4874 147.436C71.5001 147.228 69.0948 145.527 69.0948 145.527Z" fill="black"/>
<path opacity="0.1" d="M75.741 180.902C75.741 180.902 69.7202 185.586 70.7355 185.713C71.7508 185.839 75.741 180.902 75.741 180.902Z" fill="black"/>
<path d="M83.7948 87.9395L103.29 84.7671V103.224L84.767 102.255L83.7948 87.9395Z" fill="#1A73E9"/>
<path opacity="0.05" d="M83.7948 87.9395L103.29 84.7671V103.224L84.767 102.255L83.7948 87.9395Z" fill="black"/>
<path d="M103.29 84.7671L126.669 86.5166L125.376 102.579L103.29 103.224V84.7671Z" fill="#1A73E9"/>
<path opacity="0.1" d="M103.29 84.7671L126.669 86.5166L125.376 102.579L103.29 103.224V84.7671Z" fill="black"/>
<path d="M110.478 79.1338L103.29 84.7672L126.669 86.5167L130.49 80.7517L110.478 79.1338Z" fill="#1A73E9"/>
<path d="M76.7358 81.7868L94.2868 79.6499L103.29 84.7668L83.7947 87.9392L76.7358 81.7868Z" fill="#1A73E9"/>
<path d="M107.564 89.5599V114.795L98.4315 113.858L94.459 113.453L93.2488 113.327L89.2788 112.919L83.7948 112.357V87.9395L103.288 89.2662L107.564 89.5599Z" fill="#1A73E9"/>
<path d="M126.669 86.5166V111.126L119.35 112.532L115.79 113.215L107.564 114.795V89.5599L126.669 86.5166Z" fill="#1A73E9"/>
<path opacity="0.05" d="M126.669 86.5166V111.126L119.35 112.532L115.79 113.215L107.564 114.795V89.5599L126.669 86.5166Z" fill="black"/>
<path d="M76.7358 93.2513L83.7947 87.9395L107.564 89.5599L104.065 95.454L76.7358 93.2513Z" fill="#1A73E9"/>
<path opacity="0.1" d="M76.7358 93.2513L83.7947 87.9395L107.564 89.5599L104.065 95.454L76.7358 93.2513Z" fill="white"/>
<path d="M126.669 86.5166L107.564 89.5599L113.782 95.13L134.247 91.6968L126.669 86.5166Z" fill="#1A73E9"/>
<path opacity="0.1" d="M126.669 86.5166L107.564 89.5599L113.782 95.13L134.247 91.6968L126.669 86.5166Z" fill="white"/>
<path opacity="0.1" d="M119.35 112.531L115.79 113.215V107.956L119.124 107.116L119.35 112.531Z" fill="white"/>
<path opacity="0.1" d="M98.4315 110.379V113.858L94.459 113.453V110.379H98.4315Z" fill="white"/>
<path opacity="0.1" d="M93.2486 111.476V113.326L89.2787 112.919V111.476H93.2486Z" fill="white"/>
<path opacity="0.1" d="M105.174 108.534C102.452 112.015 93.464 109.61 93.464 109.61L86.7849 102.642L85.8785 101.698L87.6508 98.4062C87.6508 98.4062 88.1572 98.5733 89.0029 98.867C93.4792 100.432 107.465 105.604 105.174 108.534Z" fill="black"/>
<path d="M104.921 108.027C102.199 111.509 93.2109 109.103 93.2109 109.103L86.5318 102.136L85.6254 101.191L87.3977 97.8999C87.3977 97.8999 87.904 98.067 88.7497 98.3607C93.226 99.9254 107.212 105.098 104.921 108.027Z" fill="#EFB7B9"/>
<path opacity="0.1" d="M88.7396 98.3607C88.3699 99.4241 87.4306 100.999 86.5216 102.136L85.6152 101.191L87.3875 97.8999C87.3875 97.8999 87.8964 98.067 88.7396 98.3607Z" fill="black"/>
<path d="M66.6261 58.9848C66.6261 58.9848 59.98 61.5167 59.9167 68.6059C59.9015 73.1742 60.1552 77.7395 60.6762 82.278C60.6762 82.278 58.7773 92.8486 64.1575 95.8868C69.5378 98.9251 74.5382 101.457 74.5382 101.457C74.5382 101.457 83.1339 102.849 84.1897 103.293C85.2455 103.736 88.9142 98.0389 88.3445 97.0894C87.7748 96.14 79.9488 93.798 79.0196 92.2156C78.0904 90.6332 75.8016 89.5673 75.8016 89.5673C75.8016 89.5673 73.4672 87.9747 73.3735 86.6455C73.2799 85.3162 73.9685 84.3668 74.1635 83.7971C74.3584 83.2275 75.0648 77.6573 75.0648 77.6573C75.0648 77.6573 78.8424 57.8961 66.6261 58.9848Z" fill="#DCE6F2"/>
<path opacity="0.1" d="M69.6644 82.4556C69.6644 82.4556 60.6763 83.4683 61.3726 86.6331C61.3726 86.6331 64.7881 83.4405 69.6644 82.4556Z" fill="black"/>
<path opacity="0.1" d="M69.6644 83.7212C69.6644 83.7212 64.5627 87.4557 65.4995 87.7089C66.4363 87.9621 69.6644 83.7212 69.6644 83.7212Z" fill="black"/>
<path opacity="0.1" d="M71.943 85.2407C71.943 85.2407 70.4872 87.8587 71.3101 87.7219C72.1329 87.5852 71.943 85.2407 71.943 85.2407Z" fill="black"/>
<path d="M165.526 28.4558C165.526 28.4558 155.905 27.876 157.029 34.626C157.029 34.626 156.804 35.8185 157.885 36.3603C157.885 36.3603 157.903 35.8539 158.872 36.0286C159.218 36.0868 159.569 36.1038 159.918 36.0793C160.391 36.0477 160.841 35.8618 161.199 35.5501C161.199 35.5501 163.906 34.4336 164.959 30.0079C164.959 30.0079 165.739 29.0407 165.718 28.7926L164.093 29.4888C164.093 29.4888 164.647 30.6611 164.209 31.6358C164.209 31.6358 164.159 29.5319 163.845 29.58C163.782 29.58 163.002 29.9876 163.002 29.9876C163.002 29.9876 163.956 32.0283 163.235 33.5145C163.235 33.5145 163.508 30.9978 162.703 30.1345L161.559 30.8029C161.559 30.8029 162.675 32.9119 161.918 34.6336C161.918 34.6336 162.113 31.9928 161.318 30.9649L160.28 31.7726C160.28 31.7726 161.331 33.8538 160.69 35.2817C160.69 35.2817 160.607 32.2081 160.055 31.9751C160.055 31.9751 159.148 32.7752 159.012 33.1043C159.012 33.1043 159.728 34.6235 159.282 35.4109C159.282 35.4109 159.009 33.3626 158.776 33.3525C158.776 33.3525 157.872 34.7095 157.779 35.6311C157.822 34.7719 158.09 33.9392 158.556 33.2157C158.035 33.3143 157.554 33.5634 157.173 33.9323C157.173 33.9323 157.313 32.9727 158.779 32.8891C158.779 32.8891 159.538 31.8587 159.726 31.7954C159.726 31.7954 158.267 31.6738 157.384 32.0663C157.384 32.0663 158.161 31.1624 159.994 31.5599L161.007 30.7244C161.007 30.7244 159.088 30.4712 158.272 30.7522C158.272 30.7522 159.209 29.9522 161.283 30.5345L162.397 29.8686C162.397 29.8686 160.761 29.5141 159.786 29.6433C159.786 29.6433 160.814 29.0888 162.723 29.6888L163.521 29.3318C163.521 29.3318 162.321 29.0964 161.971 29.0584C161.622 29.0204 161.602 28.9242 161.602 28.9242C162.361 28.7979 163.14 28.8855 163.852 29.1774C163.852 29.1774 165.562 28.5622 165.526 28.4558Z" fill="#1A73E9"/>
<path opacity="0.1" d="M194.759 62.2156C194.759 62.2156 185.138 61.6358 186.262 68.3857C186.262 68.3857 186.037 69.5783 187.118 70.1201C187.118 70.1201 187.136 69.6137 188.108 69.7884C188.453 69.8465 188.804 69.8635 189.154 69.839C189.621 69.8051 190.066 69.6203 190.419 69.3124C190.419 69.3124 193.129 68.1933 194.182 63.7676C194.182 63.7676 194.959 62.803 194.929 62.5549L193.303 63.2486C193.303 63.2486 193.858 64.4208 193.422 65.3956C193.422 65.3956 193.369 63.2916 193.058 63.3397C192.994 63.3397 192.212 63.7474 192.212 63.7474C192.212 63.7474 193.169 65.7906 192.447 67.2743C192.447 67.2743 192.721 64.7576 191.913 63.8942L190.781 64.555C190.781 64.555 191.898 66.6641 191.141 68.3857C191.141 68.3857 191.336 65.745 190.541 64.7171L189.505 65.5273C189.505 65.5273 190.554 67.6059 189.916 69.0339C189.916 69.0339 189.832 65.9602 189.28 65.7273C189.28 65.7273 188.374 66.5274 188.234 66.8565C188.234 66.8565 188.954 68.3756 188.508 69.163C188.508 69.163 188.234 67.1147 188.002 67.1046C188.002 67.1046 187.098 68.4617 187.004 69.3833C187.049 68.524 187.318 67.6914 187.784 66.9679C187.262 67.0667 186.781 67.3157 186.399 67.6844C186.399 67.6844 186.541 66.7248 188.007 66.6413C188.007 66.6413 188.753 65.6108 188.954 65.5475C188.954 65.5475 187.495 65.426 186.612 65.8184C186.612 65.8184 187.389 64.9146 189.219 65.3247L190.232 64.4892C190.232 64.4892 188.31 64.236 187.498 64.5171C187.498 64.5171 188.434 63.717 190.508 64.2993L191.622 63.6334C191.622 63.6334 189.984 63.2815 189.009 63.4081C189.009 63.4081 190.04 62.8536 191.949 63.4537L192.746 63.0967C192.746 63.0967 191.546 62.8612 191.194 62.8232C190.842 62.7853 190.825 62.689 190.825 62.689C191.585 62.5626 192.365 62.6503 193.078 62.9422C193.078 62.9422 194.789 62.3219 194.759 62.2156Z" fill="#1A73E9"/>
<path opacity="0.1" d="M136.311 56.2228C136.311 56.2228 138.526 46.8321 131.68 46.7992C131.68 46.7992 130.543 46.3738 129.827 47.3461C129.827 47.3461 130.315 47.4499 129.984 48.3765C129.869 48.7042 129.792 49.044 129.756 49.3893C129.707 49.8599 129.812 50.3337 130.057 50.7388C130.057 50.7388 130.698 53.5998 134.868 55.3923C134.868 55.3923 135.688 56.3241 135.936 56.3342L135.531 54.6151C135.531 54.6151 134.28 54.9619 133.394 54.3619C133.394 54.3619 135.478 54.6682 135.48 54.3619C135.48 54.2986 135.227 53.4605 135.227 53.4605C135.227 53.4605 133.052 54.053 131.71 53.0883C131.71 53.0883 134.144 53.7871 135.133 53.1415L134.678 51.8958C134.678 51.8958 132.399 52.6377 130.839 51.5971C130.839 51.5971 133.409 52.2402 134.559 51.6325L133.938 50.4729C133.938 50.4729 131.71 51.1515 130.411 50.278C130.411 50.278 133.45 50.7185 133.779 50.2172C133.779 50.2172 133.146 49.1867 132.845 48.9943C132.845 48.9943 131.234 49.445 130.525 48.8702C130.525 48.8702 132.589 48.9487 132.637 48.731C132.637 48.731 131.455 47.6094 130.553 47.3562C131.393 47.5474 132.169 47.9541 132.804 48.536C132.795 48.0054 132.631 47.489 132.333 47.0498C132.333 47.0498 133.255 47.3537 133.093 48.8221C133.093 48.8221 133.979 49.7336 134.007 49.9412C134.007 49.9412 134.374 48.5259 134.138 47.5866C134.138 47.5866 134.898 48.5082 134.181 50.2425L134.83 51.3945C134.83 51.3945 135.417 49.5463 135.268 48.6955C135.268 48.6955 135.898 49.7539 134.969 51.6983L135.437 52.9111C135.437 52.9111 136.063 51.3565 136.103 50.3792C136.103 50.3792 136.475 51.4882 135.556 53.2681L135.774 54.1138C135.774 54.1138 136.21 52.9719 136.306 52.6326C136.402 52.2933 136.501 52.2908 136.501 52.2908C136.497 53.0611 136.279 53.815 135.87 54.4682C135.87 54.4682 136.202 56.2355 136.311 56.2228Z" fill="#1A73E9"/>
<path opacity="0.1" d="M115.241 59.4229C115.241 59.4229 107.513 53.6427 104.751 59.904C104.751 59.904 103.908 60.7775 104.513 61.8231C104.513 61.8231 104.802 61.4155 105.526 62.0915C105.782 62.3301 106.066 62.5375 106.371 62.7093C106.785 62.9395 107.262 63.0284 107.731 62.9625C107.731 62.9625 110.607 63.5169 113.919 60.4002C113.919 60.4002 115.101 60.0204 115.213 59.7976L113.468 59.4913C113.468 59.4913 113.286 60.7749 112.387 61.3497C112.387 61.3497 113.499 59.5622 113.21 59.433C113.152 59.4052 112.281 59.3064 112.281 59.3064C112.281 59.3064 111.957 61.5396 110.539 62.3827C110.539 62.3827 112.152 60.4306 111.952 59.2659L110.628 59.195C110.628 59.195 110.402 61.5725 108.822 62.5953C108.822 62.5953 110.435 60.4964 110.341 59.2001L109.03 59.3064C109.03 59.3064 108.764 61.618 107.445 62.4586C107.445 62.4586 109.063 59.8457 108.731 59.3495C108.731 59.3495 107.534 59.5191 107.237 59.7166C107.237 59.7166 107.007 61.3724 106.197 61.7927C106.197 61.7927 107.096 59.9318 106.913 59.8027C106.913 59.8027 105.412 60.4382 104.822 61.1623C105.332 60.469 106.015 59.9209 106.802 59.5723C106.312 59.3687 105.774 59.3124 105.252 59.4102C105.252 59.4102 105.895 58.6861 107.166 59.4229C107.166 59.4229 108.356 58.9748 108.559 59.0305C108.559 59.0305 107.407 58.1266 106.452 57.9696C106.452 57.9696 107.602 57.6405 108.906 58.9824L110.22 58.8482C110.22 58.8482 108.759 57.5822 107.921 57.3696C107.921 57.3696 109.144 57.2151 110.554 58.8406L111.85 58.8988C111.85 58.8988 110.678 57.7038 109.795 57.2733C109.795 57.2733 110.957 57.3746 112.223 58.9267L113.086 59.0659C113.086 59.0659 112.212 58.2101 111.939 57.9873C111.666 57.7645 111.704 57.6709 111.704 57.6709C112.408 57.9828 113.012 58.4841 113.448 59.1191C113.448 59.1191 115.208 59.5267 115.241 59.4229Z" fill="#1A73E9"/>
<path opacity="0.1" d="M140.967 5.71944C140.967 5.71944 133.24 -0.0633476 130.477 6.2005C130.477 6.2005 129.634 7.07399 130.239 8.11966C130.239 8.11966 130.528 7.71203 131.252 8.38804C131.51 8.62542 131.795 8.83189 132.1 9.00328C132.514 9.23371 132.991 9.32263 133.46 9.25647C133.46 9.25647 136.336 9.81095 139.648 6.69168C139.648 6.69168 140.83 6.31443 140.939 6.0891L139.195 5.7878C139.195 5.7878 139.015 7.07146 138.113 7.6462C138.113 7.6462 139.228 5.8587 138.939 5.72957C138.881 5.70172 138.01 5.60298 138.01 5.60298C138.01 5.60298 137.675 7.84115 136.258 8.6792C136.258 8.6792 137.868 6.72713 137.67 5.56247L136.346 5.49158C136.346 5.49158 136.118 7.869 134.541 8.88935C134.541 8.88935 136.154 6.79043 136.06 5.49411L134.751 5.60045C134.751 5.60045 134.483 7.91458 133.164 8.75516C133.164 8.75516 134.784 6.14227 134.452 5.64602C134.452 5.64602 133.255 5.81565 132.959 6.01314C132.959 6.01314 132.728 7.66898 131.918 8.08928C131.918 8.08928 132.817 6.22835 132.635 6.09669C132.635 6.09669 131.133 6.73472 130.543 7.45884C131.053 6.76478 131.735 6.21653 132.523 5.86882C132.033 5.66376 131.493 5.60741 130.971 5.70678C130.971 5.70678 131.617 4.98267 132.888 5.71944C132.888 5.71944 134.078 5.26877 134.28 5.327C134.28 5.327 133.128 4.42313 132.174 4.26362C132.174 4.26362 133.321 3.93701 134.625 5.27637L135.939 5.14218C135.939 5.14218 134.48 3.87624 133.64 3.66103C133.64 3.66103 134.863 3.50912 136.275 5.13458L137.572 5.19028C137.572 5.19028 136.399 3.99524 135.513 3.56736C135.513 3.56736 136.678 3.66863 137.944 5.22067L138.805 5.35992C138.805 5.35992 137.929 4.51427 137.655 4.29653C137.382 4.07879 137.42 3.98258 137.42 3.98258C138.124 4.29415 138.728 4.79559 139.164 5.43081C139.164 5.43081 140.924 5.81566 140.967 5.71944Z" fill="#1A73E9"/>
<path opacity="0.1" d="M170.494 13.0441C170.494 13.0441 167.405 3.90153 161.579 7.49425C161.579 7.49425 160.389 7.74744 160.295 8.93995C160.295 8.93995 160.764 8.76778 160.971 9.72989C161.048 10.0721 161.165 10.4043 161.318 10.7199C161.527 11.1445 161.868 11.49 162.29 11.7048C162.29 11.7048 164.346 13.7935 168.843 13.1023C168.843 13.1023 170.03 13.4619 170.248 13.3378L168.982 12.0947C168.982 12.0947 168.106 13.0492 167.038 13.0112C167.038 13.0112 168.969 12.1706 168.81 11.8997C168.777 11.8465 168.116 11.2718 168.116 11.2718C168.116 11.2718 166.582 12.9251 164.936 12.8162C164.936 12.8162 167.369 12.1225 167.865 11.0439L166.817 10.2363C166.817 10.2363 165.283 12.0643 163.402 12.0086C163.402 12.0086 165.934 11.1958 166.574 10.0717L165.435 9.41594C165.435 9.41594 163.916 11.1705 162.341 11.1148C162.341 11.1148 165.156 9.88181 165.164 9.28428C165.164 9.28428 164.083 8.745 163.726 8.73993C163.726 8.73993 162.597 9.97296 161.7 9.86155C161.7 9.86155 163.493 8.83614 163.417 8.626C163.417 8.626 161.822 8.29939 160.923 8.5627C161.736 8.27965 162.609 8.21419 163.455 8.37281C163.166 7.92694 162.753 7.575 162.267 7.36006C162.267 7.36006 163.209 7.12966 163.84 8.45636C163.84 8.45636 165.075 8.76272 165.207 8.92223C165.207 8.92223 164.772 7.52717 164.075 6.85369C164.075 6.85369 165.207 7.236 165.516 9.0868L166.675 9.71977C166.675 9.71977 166.197 7.84365 165.62 7.1879C165.62 7.1879 166.716 7.75504 166.954 9.89447L167.992 10.6768C167.992 10.6768 167.703 9.02604 167.217 8.17026C167.217 8.17026 168.119 8.91463 168.281 10.9123L168.911 11.5149C168.911 11.5149 168.678 10.3148 168.582 9.97549C168.486 9.63622 168.564 9.61343 168.564 9.61343C168.967 10.2702 169.18 11.0256 169.179 11.7959C169.179 11.7959 170.405 13.1099 170.494 13.0441Z" fill="#1A73E9"/>
<path opacity="0.1" d="M150.335 13.4951C150.335 13.4951 140.739 12.4266 141.531 19.2348C141.531 19.2348 141.245 20.4147 142.291 21.0071C142.291 21.0071 142.334 20.5007 143.304 20.7286C143.646 20.8023 143.996 20.8372 144.347 20.8324C144.82 20.8239 145.278 20.6612 145.651 20.3691C145.651 20.3691 148.413 19.3893 149.702 15.0218C149.702 15.0218 150.527 14.0976 150.509 13.847L148.851 14.4597C148.851 14.4597 149.357 15.6573 148.851 16.6093C148.851 16.6093 148.904 14.5053 148.598 14.5382C148.535 14.5382 147.734 14.9028 147.734 14.9028C147.734 14.9028 148.585 16.9916 147.79 18.4474C147.79 18.4474 148.19 15.9459 147.428 15.0446L146.251 15.6522C146.251 15.6522 147.264 17.817 146.415 19.4981C146.415 19.4981 146.745 16.87 146.003 15.8041L144.927 16.5637C144.927 16.5637 145.868 18.693 145.157 20.088C145.157 20.088 145.23 17.0144 144.691 16.7536C144.691 16.7536 143.744 17.5131 143.59 17.8271C143.59 17.8271 144.23 19.3715 143.747 20.1437C143.747 20.1437 143.577 18.0853 143.354 18.0651C143.354 18.0651 142.382 19.3741 142.24 20.2982C142.328 19.4414 142.639 18.6226 143.142 17.9233C142.616 17.9959 142.123 18.2203 141.724 18.5689C141.724 18.5689 141.911 17.6195 143.38 17.6093C143.38 17.6093 144.177 16.6194 144.392 16.5662C144.392 16.5662 142.942 16.3713 142.038 16.7181C142.038 16.7181 142.861 15.8522 144.668 16.3561L145.734 15.5737C145.734 15.5737 143.808 15.1838 142.992 15.437C142.992 15.437 143.97 14.6774 146.01 15.3737L147.157 14.7635C147.157 14.7635 145.539 14.328 144.56 14.4065C144.56 14.4065 145.615 13.9002 147.491 14.6015L148.307 14.285C148.307 14.285 147.119 13.9888 146.77 13.9331C146.42 13.8774 146.408 13.7812 146.408 13.7812C147.173 13.6933 147.948 13.8195 148.646 14.1457C148.646 14.1457 150.352 13.6014 150.335 13.4951Z" fill="#1A73E9"/>
<path opacity="0.1" d="M234.292 87.9747C234.292 87.9747 224.701 86.9062 225.493 93.7068C225.493 93.7068 225.207 94.8867 226.253 95.4791C226.253 95.4791 226.296 94.9727 227.266 95.1981C227.608 95.2743 227.958 95.3092 228.309 95.3019C228.783 95.2946 229.241 95.1318 229.613 94.8386C229.613 94.8386 232.375 93.8587 233.651 89.4938C233.651 89.4938 234.477 88.5671 234.459 88.319L232.8 88.9292C232.8 88.9292 233.307 90.1293 232.8 91.0813C232.8 91.0813 232.854 88.9747 232.547 89.0102C232.484 89.0102 231.684 89.3722 231.684 89.3722C231.684 89.3722 232.535 91.461 231.74 92.9169C231.74 92.9169 232.14 90.4179 231.378 89.514L230.2 90.1242C230.2 90.1242 231.213 92.289 230.367 93.9701C230.367 93.9701 230.694 91.342 229.952 90.2736L228.876 91.0332C228.876 91.0332 229.818 93.1625 229.106 94.555C229.106 94.555 229.18 91.4813 228.641 91.223C228.641 91.223 227.696 91.9826 227.539 92.2966C227.539 92.2966 228.182 93.841 227.696 94.6132C227.696 94.6132 227.527 92.5548 227.304 92.5346C227.304 92.5346 226.331 93.8435 226.19 94.7677C226.278 93.9109 226.588 93.0921 227.091 92.3928C226.565 92.4641 226.072 92.6886 225.673 93.0384C225.673 93.0384 225.861 92.0864 227.329 92.0763C227.329 92.0763 228.129 91.0863 228.342 91.0357C228.342 91.0357 226.891 90.8382 225.987 91.1851C225.987 91.1851 226.81 90.3217 228.62 90.8255L229.684 90.0432C229.684 90.0432 227.78 89.6837 226.952 89.9318C226.952 89.9318 227.929 89.1722 229.97 89.866L231.117 89.2583C231.117 89.2583 229.499 88.8228 228.519 88.9013C228.519 88.9013 229.575 88.3949 231.451 89.0963L232.266 88.7773C232.266 88.7773 231.079 88.481 230.729 88.4279C230.38 88.3747 230.367 88.2759 230.367 88.2759C231.133 88.1865 231.908 88.3119 232.606 88.638C232.606 88.638 234.317 88.0835 234.292 87.9747Z" fill="#1A73E9"/>
<path opacity="0.1" d="M248.954 96.9328C248.954 96.9328 239.363 95.8669 240.155 102.665C240.155 102.665 239.872 103.845 240.915 104.437C240.915 104.437 240.958 103.931 241.928 104.159C242.269 104.233 242.619 104.267 242.968 104.26C243.44 104.25 243.895 104.089 244.267 103.799C244.267 103.799 247.027 102.819 248.303 98.4519C248.303 98.4519 249.131 97.5278 249.111 97.2771L247.452 97.8873C247.452 97.8873 247.959 99.0874 247.452 100.039C247.452 100.039 247.505 97.9354 247.199 97.9684C247.136 97.9684 246.336 98.3304 246.336 98.3304C246.336 98.3304 247.186 100.419 246.391 101.875C246.391 101.875 246.791 99.3761 246.029 98.4747L244.852 99.0824C244.852 99.0824 245.865 101.247 245.019 102.928C245.019 102.928 245.346 100.3 244.604 99.2343L243.528 99.9938C243.528 99.9938 244.47 102.123 243.761 103.518C243.761 103.518 243.832 100.442 243.292 100.184C243.292 100.184 242.348 100.943 242.191 101.257C242.191 101.257 242.834 102.802 242.348 103.574C242.348 103.574 242.178 101.515 241.956 101.495C241.956 101.495 240.983 102.804 240.844 103.728C240.932 102.872 241.242 102.053 241.743 101.353C241.218 101.426 240.725 101.65 240.325 101.999C240.325 101.999 240.515 101.047 241.983 101.04C241.983 101.04 242.781 100.05 242.996 99.9964C242.996 99.9964 241.545 99.8014 240.642 100.148C240.642 100.148 241.464 99.2824 243.275 99.7862L244.338 99.0039C244.338 99.0039 242.434 98.6444 241.606 98.8925C241.606 98.8925 242.583 98.1329 244.624 98.8292L245.771 98.219C245.771 98.219 244.153 97.7835 243.173 97.862C243.173 97.862 244.229 97.3556 246.105 98.057L246.921 97.7405C246.921 97.7405 245.733 97.4443 245.386 97.3886C245.039 97.3329 245.022 97.2366 245.022 97.2366C245.787 97.1488 246.562 97.275 247.26 97.6012C247.26 97.6012 248.979 97.0417 248.954 96.9328Z" fill="#1A73E9"/>
<path opacity="0.1" d="M216.401 21.4805C216.401 21.4805 208.674 15.7003 205.912 21.9616C205.912 21.9616 205.069 22.8351 205.674 23.8807C205.674 23.8807 205.963 23.4731 206.687 24.1491C206.943 24.3877 207.227 24.5951 207.532 24.7669C207.946 24.997 208.423 25.0859 208.892 25.0201C208.892 25.0201 211.768 25.5746 215.082 22.4578C215.082 22.4578 216.262 22.078 216.374 21.8552L214.634 21.5413C214.634 21.5413 214.452 22.8249 213.553 23.3997C213.553 23.3997 214.665 21.6122 214.376 21.4831C214.318 21.4552 213.449 21.3565 213.449 21.3565C213.449 21.3565 213.123 23.5896 211.705 24.4327C211.705 24.4327 213.318 22.4806 213.118 21.316L211.793 21.2451C211.793 21.2451 211.568 23.6225 209.988 24.6454C209.988 24.6454 211.604 22.5464 211.507 21.2501L210.196 21.3565C210.196 21.3565 209.943 23.6681 208.611 24.5086C208.611 24.5086 210.231 21.8958 209.897 21.3995C209.897 21.3995 208.699 21.5691 208.403 21.7666C208.403 21.7666 208.175 23.4225 207.365 23.8428C207.365 23.8428 208.261 21.9818 208.079 21.8527C208.079 21.8527 206.578 22.4882 205.988 23.2123C206.498 22.519 207.181 21.9709 207.968 21.6223C207.478 21.4188 206.94 21.3624 206.418 21.4603C206.418 21.4603 207.064 20.7362 208.335 21.4729C208.335 21.4729 209.522 21.0248 209.725 21.0805C209.725 21.0805 208.573 20.1766 207.618 20.0196C207.618 20.0196 208.768 19.6905 210.072 21.0324L211.386 20.8982C211.386 20.8982 209.927 19.6323 209.087 19.4196C209.087 19.4196 210.31 19.2651 211.72 20.8906L213.019 20.9488C213.019 20.9488 211.844 19.7538 210.96 19.3234C210.96 19.3234 212.125 19.4247 213.388 20.9767L214.252 21.1159C214.252 21.1159 213.378 20.2602 213.105 20.0374C212.831 19.8146 212.872 19.7411 212.872 19.7411C213.575 20.0536 214.178 20.5549 214.614 21.1894C214.614 21.1894 216.368 21.5843 216.401 21.4805Z" fill="#1A73E9"/>
<path opacity="0.1" d="M222.372 63.2107C222.372 63.2107 219.708 53.9365 213.718 57.2659C213.718 57.2659 212.518 57.4507 212.368 58.6508C212.368 58.6508 212.844 58.5014 213.009 59.4712C213.07 59.8195 213.172 60.1595 213.313 60.4839C213.5 60.9202 213.826 61.283 214.239 61.5169C214.239 61.5169 216.199 63.6943 220.721 63.2082C220.721 63.2082 221.891 63.6183 222.113 63.5069L220.916 62.2056C220.916 62.2056 219.997 63.1221 218.933 63.036C218.933 63.036 220.898 62.2765 220.746 62.0056C220.716 61.9498 220.083 61.3447 220.083 61.3447C220.083 61.3447 218.478 62.9297 216.837 62.7449C216.837 62.7449 219.3 62.1625 219.842 61.1143L218.829 60.2586C218.829 60.2586 217.214 62.0157 215.338 61.879C215.338 61.879 217.89 61.1776 218.594 60.0864L217.485 59.38C217.485 59.38 215.877 61.0637 214.318 60.9371C214.318 60.9371 217.186 59.8307 217.222 59.2357C217.222 59.2357 216.163 58.6483 215.806 58.628C215.806 58.628 214.624 59.8079 213.725 59.656C213.725 59.656 215.563 58.7116 215.498 58.4989C215.498 58.4989 213.918 58.1014 213.009 58.3217C213.832 58.0776 214.705 58.0523 215.541 58.2483C215.273 57.7901 214.877 57.4205 214.401 57.1849C214.401 57.1849 215.353 56.995 215.92 58.3495C215.92 58.3495 217.138 58.7091 217.265 58.8762C217.265 58.8762 216.893 57.4608 216.227 56.7595C216.227 56.7595 217.341 57.1899 217.566 59.0534L218.695 59.7395C218.695 59.7395 218.3 57.8406 217.753 57.1722C217.753 57.1722 218.822 57.7875 218.966 59.9345L219.979 60.7624C219.979 60.7624 219.764 59.1015 219.318 58.2305C219.318 58.2305 220.187 59.0154 220.257 61.0156L220.86 61.6486C220.86 61.6486 220.683 60.4383 220.607 60.094C220.531 59.7497 220.607 59.7015 220.607 59.7015C220.982 60.375 221.161 61.1395 221.126 61.9093C221.126 61.9093 222.28 63.2715 222.372 63.2107Z" fill="#1A73E9"/>
<path opacity="0.1" d="M163.02 84.1088C163.02 84.1088 157.847 75.9613 153.044 80.8376C153.044 80.8376 151.945 81.344 152.137 82.5466C152.137 82.5466 152.555 82.2681 152.986 83.1543C153.14 83.4683 153.332 83.7625 153.558 84.0303C153.86 84.3959 154.273 84.6521 154.735 84.7595C154.735 84.7595 157.229 86.2988 161.432 84.5569C161.432 84.5569 162.67 84.6228 162.852 84.4531L161.333 83.5416C161.333 83.5416 160.708 84.681 159.662 84.8962C159.662 84.8962 161.338 83.6303 161.113 83.3973C161.07 83.3518 160.29 82.9517 160.29 82.9517C160.29 82.9517 159.194 84.9215 157.568 85.2076C157.568 85.2076 159.769 83.9543 159.996 82.7948L158.784 82.2605C158.784 82.2605 157.728 84.3999 155.89 84.7924C155.89 84.7924 158.143 83.4024 158.51 82.1567L157.244 81.7921C157.244 81.7921 156.176 83.8607 154.644 84.1771C154.644 84.1771 157.085 82.3086 156.951 81.7263C156.951 81.7263 155.771 81.4605 155.431 81.5415C155.431 81.5415 154.629 83.0074 153.722 83.1138C153.722 83.1138 155.221 81.6909 155.097 81.5035C155.097 81.5035 153.469 81.5668 152.659 82.0352C153.382 81.567 154.215 81.2964 155.074 81.2503C154.689 80.8859 154.206 80.6422 153.684 80.549C153.684 80.549 154.543 80.1008 155.457 81.2402C155.457 81.2402 156.723 81.2402 156.897 81.3668C156.897 81.3668 156.138 80.1008 155.305 79.6274C155.305 79.6274 156.495 79.7287 157.234 81.4529L158.513 81.7921C158.513 81.7921 157.599 80.0831 156.887 79.5945C156.887 79.5945 158.085 79.8831 158.827 81.9061L160.022 82.4124C160.022 82.4124 159.348 80.8807 158.672 80.1641C158.672 80.1641 159.726 80.6705 160.356 82.5719L161.116 83.01C161.116 83.01 160.609 81.8985 160.429 81.5921C160.25 81.2858 160.321 81.2149 160.321 81.2149C160.868 81.756 161.255 82.4389 161.437 83.1872C161.437 83.1872 162.951 84.1949 163.02 84.1088Z" fill="#1A73E9"/>
<path d="M197.015 42.4796C197.015 42.4796 192.095 34.1776 187.141 38.9021C187.141 38.9021 186.027 39.3832 186.183 40.5833C186.183 40.5833 186.606 40.3149 187.011 41.2137C187.156 41.5332 187.339 41.8341 187.556 42.11C187.847 42.4834 188.252 42.7504 188.71 42.8696C188.71 42.8696 191.154 44.4849 195.41 42.8696C195.41 42.8696 196.645 42.9734 196.833 42.8088L195.346 41.8517C195.346 41.8517 194.688 42.9683 193.635 43.1531C193.635 43.1531 195.349 41.9302 195.134 41.6998C195.088 41.6517 194.323 41.2264 194.323 41.2264C194.323 41.2264 193.166 43.1633 191.538 43.3987C191.538 43.3987 193.777 42.2138 194.037 41.0643L192.842 40.5023C192.842 40.5023 191.721 42.6113 189.87 42.948C189.87 42.948 192.166 41.6289 192.571 40.3959L191.321 39.9908C191.321 39.9908 190.186 42.0163 188.647 42.2948C188.647 42.2948 191.143 40.5023 191.027 39.9174C191.027 39.9174 189.857 39.6136 189.508 39.6845C189.508 39.6845 188.66 41.1251 187.751 41.2036C187.751 41.2036 189.293 39.8313 189.176 39.6389C189.176 39.6389 187.546 39.6515 186.723 40.0946C187.46 39.65 188.3 39.4056 189.161 39.3857C188.787 39.0093 188.311 38.7506 187.791 38.6413C187.791 38.6413 188.665 38.2185 189.564 39.3857C189.564 39.3857 190.829 39.4287 190.999 39.5579C190.999 39.5579 190.283 38.2919 189.462 37.7704C189.462 37.7704 190.647 37.9071 191.333 39.6541L192.599 40.0339C192.599 40.0339 191.741 38.297 191.042 37.7856C191.042 37.7856 192.232 38.1122 192.911 40.1554L194.088 40.7048C194.088 40.7048 193.463 39.1528 192.822 38.4261C192.822 38.4261 193.858 38.9654 194.432 40.8846L195.174 41.3454C195.174 41.3454 194.698 40.2187 194.531 39.9073C194.364 39.5958 194.435 39.5275 194.435 39.5275C194.966 40.0853 195.331 40.7795 195.491 41.5327C195.491 41.5327 196.941 42.5632 197.015 42.4796Z" fill="#1A73E9"/>
<path d="M165.891 59.9372C165.891 59.9372 166.144 50.2907 159.442 51.6504C159.442 51.6504 158.242 51.4655 157.735 52.5644C157.735 52.5644 158.242 52.5644 158.1 53.5391C158.054 53.8867 158.049 54.2386 158.085 54.5873C158.131 55.0604 158.331 55.5053 158.655 55.8533C158.655 55.8533 159.862 58.5218 164.321 59.4283C164.321 59.4283 165.311 60.1752 165.559 60.1347L164.799 58.5345C164.799 58.5345 163.647 59.127 162.657 58.7244C162.657 58.7244 164.759 58.6003 164.701 58.2915C164.701 58.2282 164.265 57.4585 164.265 57.4585C164.265 57.4585 162.255 58.4839 160.748 57.8104C160.748 57.8104 163.28 58.0003 164.108 57.1673L163.402 56.0457C163.402 56.0457 161.331 57.2306 159.584 56.5318C159.584 56.5318 162.23 56.6381 163.232 55.8102L162.389 54.7975C162.389 54.7975 160.346 55.9166 158.898 55.3241C158.898 55.3241 161.966 55.1393 162.189 54.5797C162.189 54.5797 161.359 53.7012 161.024 53.567C161.024 53.567 159.541 54.3265 158.73 53.9164C158.73 53.9164 160.756 53.5771 160.769 53.3518C160.769 53.3518 159.384 52.4935 158.449 52.4302C159.311 52.4456 160.153 52.6865 160.893 53.129C160.777 52.6115 160.513 52.1389 160.133 51.7694C160.133 51.7694 161.098 51.8782 161.229 53.3391C161.229 53.3391 162.285 54.0531 162.354 54.2506C162.354 54.2506 162.427 52.7897 162.004 51.9187C162.004 51.9187 162.936 52.6656 162.587 54.5088L163.455 55.5064C163.455 55.5064 163.652 53.5771 163.336 52.7745C163.336 52.7745 164.166 53.6835 163.655 55.7748L164.356 56.866C164.356 56.866 164.655 55.2178 164.496 54.2481C164.496 54.2481 165.083 55.2608 164.546 57.1876L164.931 57.9724C164.931 57.9724 165.126 56.7647 165.151 56.4128C165.177 56.0609 165.273 56.0381 165.273 56.0381C165.425 56.7934 165.365 57.5761 165.098 58.299C165.098 58.299 165.779 59.9701 165.891 59.9372Z" fill="#1A73E9"/>
<path opacity="0.1" d="M176.97 182.51C180.736 182.51 183.788 181.994 183.788 181.358C183.788 180.722 180.736 180.206 176.97 180.206C173.204 180.206 170.152 180.722 170.152 181.358C170.152 181.994 173.204 182.51 176.97 182.51Z" fill="#1A73E9"/>
<path opacity="0.1" d="M152.115 200C155.88 200 158.933 199.484 158.933 198.848C158.933 198.212 155.88 197.696 152.115 197.696C148.349 197.696 145.296 198.212 145.296 198.848C145.296 199.484 148.349 200 152.115 200Z" fill="#1A73E9"/>
<path opacity="0.1" d="M23.5819 191.04C27.3475 191.04 30.4002 190.524 30.4002 189.888C30.4002 189.252 27.3475 188.736 23.5819 188.736C19.8162 188.736 16.7635 189.252 16.7635 189.888C16.7635 190.524 19.8162 191.04 23.5819 191.04Z" fill="#1A73E9"/>
<path opacity="0.1" d="M203.831 198.848C207.596 198.848 210.649 198.332 210.649 197.696C210.649 197.06 207.596 196.544 203.831 196.544C200.065 196.544 197.012 197.06 197.012 197.696C197.012 198.332 200.065 198.848 203.831 198.848Z" fill="#1A73E9"/>
<path d="M210.93 184.801C216.553 184.801 221.111 184.03 221.111 183.08C221.111 182.129 216.553 181.358 210.93 181.358C205.307 181.358 200.749 182.129 200.749 183.08C200.749 184.03 205.307 184.801 210.93 184.801Z" fill="#1A73E9"/>
<path d="M215.151 180.261C215.615 179.884 215.954 179.373 216.12 178.798C216.247 178.216 215.999 177.519 215.444 177.307C214.822 177.069 214.156 177.499 213.649 177.935C213.143 178.37 212.568 178.869 211.907 178.778C212.247 178.469 212.5 178.079 212.644 177.644C212.788 177.208 212.817 176.743 212.728 176.294C212.699 176.108 212.62 175.933 212.5 175.787C212.153 175.418 211.528 175.577 211.112 175.869C209.796 176.795 209.429 178.583 209.421 180.193C209.289 179.613 209.401 179.008 209.398 178.421C209.396 177.833 209.231 177.155 208.727 176.846C208.418 176.673 208.069 176.586 207.715 176.593C207.122 176.572 206.461 176.631 206.059 177.064C205.552 177.6 205.687 178.504 206.122 179.089C206.558 179.674 207.223 180.051 207.836 180.461C208.327 180.754 208.745 181.153 209.062 181.629C209.098 181.695 209.127 181.764 209.15 181.836H212.862C213.693 181.418 214.463 180.888 215.151 180.261Z" fill="#1A73E9"/>
<path d="M19.0042 184.533C19.0042 184.533 22.8906 184.414 24.0679 183.578C25.2452 182.743 30.0507 181.748 30.3419 183.087C30.633 184.426 36.1854 189.743 31.7952 189.779C27.4049 189.814 21.5943 189.095 20.4245 188.381C19.2548 187.667 19.0042 184.533 19.0042 184.533Z" fill="#A8A8A8"/>
<path opacity="0.2" d="M31.8686 189.313C27.4783 189.349 21.6677 188.629 20.498 187.915C19.6067 187.374 19.2523 185.427 19.1333 184.528H19.0042C19.0042 184.528 19.2573 187.665 20.4195 188.376C21.5816 189.088 27.3998 189.809 31.7901 189.774C33.056 189.774 33.494 189.313 33.4713 188.645C33.294 189.052 32.8104 189.306 31.8686 189.313Z" fill="black"/>
</g>
<defs>
<linearGradient id="paint0_linear_3141_709" x1="56.4582" y1="109.736" x2="135.485" y2="109.736" gradientUnits="userSpaceOnUse">
<stop stop-color="#808080" stop-opacity="0.25"/>
<stop offset="0.54" stop-color="#808080" stop-opacity="0.12"/>
<stop offset="1" stop-color="#808080" stop-opacity="0.1"/>
</linearGradient>
<clipPath id="clip0_3141_709">
<rect width="255.602" height="200" fill="white"/>
</clipPath>
</defs>
</svg>
