<svg width="200" height="200" viewBox="0 0 200 200" fill="none" xmlns="http://www.w3.org/2000/svg">
<path d="M64.6525 16.9978L4.01055 184.749C1.06493 191.975 8.14207 199.241 15.4223 196.466L182.618 136.526L138.652 68.3334L64.6525 16.9978Z" fill="#ECB880"/>
<path d="M24.736 193.125L15.4238 196.465C8.14278 199.242 1.06487 191.973 4.01009 184.751L64.6528 16.9978L72.8909 22.7125L15.7285 180.845C13.1114 187.262 18.412 193.719 24.736 193.125Z" fill="#E9A761"/>
<path d="M170.07 137.515C168.941 136.383 167.968 135.058 167.204 133.556C144.929 89.7481 110.047 54.794 66.3283 32.4728C58.659 28.5569 55.6095 19.1521 59.5172 11.4668C63.4249 3.78105 72.8101 0.725675 80.4802 4.64119C105.014 17.1678 127.326 33.4118 146.797 52.9222C166.267 72.4325 182.478 94.7905 194.978 119.375C198.886 127.06 195.837 136.465 188.167 140.381C181.997 143.532 174.715 142.17 170.07 137.515Z" fill="#E9A761"/>
<path d="M184.544 141.697C179.318 142.892 173.83 141.283 170.068 137.514C168.939 136.385 167.967 135.057 167.205 133.557C144.928 89.7495 110.046 54.7935 66.329 32.4738C58.6573 28.556 55.6105 19.1539 59.5167 11.4666C59.9307 10.6502 60.4073 9.88853 60.9385 9.18152C60.9424 14.8649 64.0517 20.3374 69.4539 23.0991C113.171 45.4187 156.647 85.8433 178.923 129.651C179.404 130.596 182.232 136.885 184.544 141.697Z" fill="#E69642"/>
<path d="M95.1205 154.494C106.77 154.494 116.214 145.05 116.214 133.401C116.214 121.751 106.77 112.308 95.1205 112.308C83.4711 112.308 74.0273 121.751 74.0273 133.401C74.0273 145.05 83.4711 154.494 95.1205 154.494Z" fill="#DC4955"/>
<path d="M113.425 143.893C109.784 150.228 102.948 154.494 95.1205 154.494C83.4724 154.494 74.0273 145.049 74.0273 133.401C74.0273 125.573 78.2928 118.737 84.6286 115.097C82.8552 118.186 81.8396 121.768 81.8396 125.589C81.8396 137.237 91.2847 146.682 102.933 146.682C106.753 146.682 110.335 145.666 113.425 143.893Z" fill="#D82F3C"/>
<path d="M48.6376 154.494C48.6376 166.142 39.1925 175.587 27.5444 175.587C20.5017 175.587 14.2675 172.138 10.4355 166.833L22.1735 134.092C23.8883 133.639 25.689 133.401 27.5444 133.401C39.1925 133.401 48.6376 142.846 48.6376 154.494Z" fill="#DC4955"/>
<path d="M78.7147 67.3868C78.7147 79.0349 69.2697 88.48 57.6216 88.48C54.8092 88.48 52.1296 87.9292 49.6765 86.9331C46.493 85.6363 43.7001 83.5856 41.5127 81.0036L53.9459 46.614C55.1373 46.4031 56.3677 46.2937 57.6216 46.2937C59.8481 46.2937 61.9926 46.6374 64.0081 47.282C72.5352 49.985 78.7147 57.9652 78.7147 67.3868Z" fill="#DC4955"/>
<path d="M32.6534 134.026L18.3843 173.497C15.2281 171.978 12.5134 169.693 10.4705 166.88L22.3373 134.053C24.0013 133.623 25.7474 133.401 27.5442 133.401C29.3059 133.401 31.0167 133.616 32.6534 134.026Z" fill="#D82F3C"/>
<path d="M64.0081 47.282L49.6765 86.9331C46.493 85.6363 43.7001 83.5856 41.5127 81.0036L53.9459 46.614C55.1373 46.4031 56.3677 46.2937 57.6216 46.2937C59.8481 46.2937 61.9926 46.6374 64.0081 47.282Z" fill="#D82F3C"/>
<path d="M89.5987 80.4669C91.3689 75.371 97.002 72.4976 99.7949 71.3531C100.723 70.9727 101.782 71.3527 102.259 72.2351C103.713 74.9249 106.325 80.8337 104.549 85.946C102.779 91.042 97.1461 93.9153 94.3532 95.0598C93.4251 95.4403 92.3662 95.0602 91.8892 94.1778C90.4354 91.4881 87.8229 85.5793 89.5987 80.4669Z" fill="#B7E546"/>
<path d="M105.124 82.9297C105.069 83.9453 104.89 84.9609 104.55 85.9452C102.78 91.0412 97.1461 93.9153 94.3536 95.0602C93.4255 95.4406 92.367 95.0606 91.8896 94.1786C90.435 91.4892 87.821 85.5812 89.5967 80.4688C89.8506 79.7345 90.1866 79.047 90.585 78.4064C90.3233 83.1332 92.7341 87.8787 93.8118 89.7439C94.0974 90.2384 94.6974 90.4521 95.2317 90.2513C97.3359 89.4607 102.53 87.1608 105.124 82.9297Z" fill="#ABD641"/>
<path d="M123.454 116.426C120.136 112.236 120.723 106.003 121.252 103.05C121.428 102.062 122.318 101.373 123.318 101.444C126.349 101.662 132.673 102.624 136.003 106.827C139.321 111.017 138.733 117.25 138.205 120.203C138.028 121.191 137.139 121.88 136.138 121.809C133.107 121.591 126.783 120.628 123.454 116.426Z" fill="#B7E546"/>
<path d="M138.569 117.182C138.497 118.289 138.381 119.185 138.205 120.21C138.026 121.194 137.135 121.881 136.139 121.807C132.156 121.489 127.954 120.494 124.831 117.854C120.62 114.272 120.37 108.099 121.253 103.05C121.311 102.73 121.444 102.441 121.635 102.198C121.542 105.233 122.018 108.94 124.233 111.737C128.522 117.151 137.772 117.19 138.569 117.182Z" fill="#ABD641"/>
<path d="M47.1319 119.952C45.0964 114.793 47.7455 108.742 49.0607 106.248C49.4255 105.557 50.2419 105.234 50.9759 105.503C53.6465 106.483 59.8182 109.245 61.8627 114.428C63.8982 119.587 61.249 125.638 59.9338 128.132C59.569 128.823 58.7526 129.146 58.0187 128.877C55.348 127.897 49.1763 125.135 47.1319 119.952Z" fill="#B7E546"/>
<path d="M61.4847 124.569C61.0527 125.807 60.5347 126.992 59.93 128.135C59.5668 128.819 58.7621 129.139 58.0356 128.885C53.6939 127.242 48.9831 124.493 47.1296 119.952C46.5437 118.468 46.3445 116.909 46.3953 115.386C46.5031 112.17 47.6206 109.005 49.0788 106.214C49.2272 105.952 49.4421 105.745 49.6882 105.609C48.7624 108.444 48.1999 112.03 49.4733 115.265C51.9303 121.487 60.3324 124.221 61.4847 124.569Z" fill="#ABD641"/>
<path d="M197.59 118.047C184.95 93.188 168.558 70.5805 148.87 50.8525C129.182 31.1238 106.62 14.6981 81.8123 2.03208C77.4086 -0.215896 72.3939 -0.613541 67.6913 0.914539C62.9828 2.44457 59.1524 5.72026 56.9056 10.1389C54.0022 15.85 54.3459 22.3772 57.2455 27.597L50.7554 45.698C50.7542 45.7015 50.7523 45.7046 50.7511 45.7078L47.8426 53.8212L19.4184 133.097C19.4177 133.099 19.4169 133.101 19.4161 133.103L16.2529 141.926L1.27327 183.705C-0.505583 188.135 0.459232 193 3.7982 196.417C7.14966 199.859 12.0491 200.888 16.4385 199.213L72.1493 179.23C73.6723 178.684 74.4641 177.007 73.9176 175.484C73.3712 173.961 71.6943 173.17 70.1709 173.715L14.4338 193.708C12.1358 194.606 9.71404 194.09 7.9887 192.321C6.26492 190.558 5.79228 188.141 6.72389 185.855C6.73991 185.816 6.75475 185.777 6.76882 185.738L11.5511 172.399C15.9143 176.286 21.6047 178.516 27.5448 178.516C40.7909 178.516 51.5675 167.74 51.5675 154.494C51.5675 141.248 40.7909 130.471 27.5448 130.471C27.2213 130.471 26.8991 130.479 26.5768 130.492L42.51 86.0546C46.7485 89.4944 52.0484 91.4095 57.622 91.4095C70.8681 91.4095 81.6448 80.6329 81.6448 67.3868C81.6448 54.2052 70.972 43.4734 57.815 43.3688L61.5918 32.8347C70.6396 38.6017 80.669 43.1664 89.3617 49.4612C90.7015 50.367 92.5233 50.0162 93.43 48.676C94.3366 47.3358 93.985 45.5144 92.6452 44.6082C84.6908 39.2271 76.2848 34.2655 67.6612 29.8625C61.4407 26.6864 58.9587 19.0292 62.1289 12.7935C63.6656 9.77209 66.2839 7.53192 69.5021 6.48625C72.7145 5.44331 76.1398 5.71401 79.1483 7.2499C103.407 19.6359 125.47 35.6983 144.723 54.9911C163.976 74.2839 180.006 96.3922 192.367 120.703C195.538 126.939 193.056 134.595 186.835 137.772C180.7 141.004 172.825 138.354 169.816 132.228C153.798 100.726 131.614 73.9706 103.882 52.706C102.598 51.722 100.759 51.9642 99.7743 53.2486C98.7896 54.5325 99.0325 56.3715 100.316 57.3562C129.169 78.7443 150.036 107.385 167.324 138.868L83.0408 169.099C81.5178 169.646 80.726 171.323 81.2725 172.846C81.8166 174.384 83.5365 175.158 85.0193 174.615L172.884 143.098C178.107 145.694 184.248 145.674 189.5 142.99C198.593 138.347 202.222 127.158 197.59 118.047ZM27.5448 136.33C37.5601 136.33 45.7083 144.478 45.7083 154.494C45.7083 164.509 37.5601 172.657 27.5448 172.657C22.2313 172.657 17.1748 170.304 13.7401 166.298L21.7199 144.038L24.3859 136.603C25.4214 136.421 26.4788 136.33 27.5448 136.33ZM57.622 49.2233C67.6374 49.2233 75.7856 57.3711 75.7856 67.3868C75.7856 77.4025 67.6374 85.5503 57.622 85.5503C52.7003 85.5503 48.0555 83.5813 44.6478 80.0982L52.4726 58.2691L55.6791 49.3256C56.3197 49.2577 56.9693 49.2233 57.622 49.2233Z" fill="black"/>
<path d="M74.1131 129.889C72.5081 129.836 71.1499 131.122 71.1066 132.739C70.7167 146.209 81.6433 157.445 95.1206 157.423C108.367 157.423 119.143 146.646 119.143 133.4C119.143 120.154 108.367 109.378 95.1206 109.378C87.9091 109.378 81.1433 112.575 76.5583 118.15C75.5306 119.4 75.7107 121.246 76.9603 122.274C78.2102 123.303 80.0563 123.122 81.084 121.872C84.5514 117.655 89.6677 115.237 95.1206 115.237C105.136 115.237 113.284 123.385 113.284 133.401C113.284 143.416 105.136 151.564 95.1206 151.564C84.9288 151.581 76.6654 143.081 76.9642 132.895C77.0071 131.277 75.7306 129.931 74.1131 129.889Z" fill="black"/>
<path d="M92.7524 98.5778C93.0333 98.5778 93.3172 98.5372 93.5961 98.4536C94.0387 98.32 104.472 95.0978 107.316 86.9078C110.148 78.7557 104.092 69.5298 103.833 69.1411C103.118 68.0689 101.785 67.5911 100.552 67.9607C100.109 68.0943 89.6763 71.3164 86.8315 79.5064C83.9995 87.6586 90.0556 96.8845 90.315 97.2731C90.8685 98.1028 91.7911 98.5778 92.7524 98.5778ZM92.3661 81.4283C93.5391 78.0514 97.3558 75.6585 100.092 74.4078C101.458 77.1756 102.969 81.5669 101.782 84.9848C100.609 88.3617 96.7921 90.7546 94.0555 92.0053C92.6903 89.2378 91.1786 84.8461 92.3661 81.4283Z" fill="black"/>
<path d="M129.079 105.581C130.599 106.138 132.281 105.357 132.837 103.837C133.394 102.317 132.613 100.635 131.093 100.079C126.428 98.3704 121.749 98.4517 121.551 98.4548C120.262 98.4825 119.143 99.3493 118.794 100.59C118.67 101.032 115.808 111.492 121.157 118.245C126.319 124.636 136.023 124.783 137.905 124.798C139.193 124.771 140.312 123.904 140.661 122.663C140.713 122.481 141.91 118.152 141.431 113.354C141.27 111.744 139.833 110.568 138.224 110.73C136.614 110.891 135.439 112.327 135.6 113.937C135.781 115.742 135.644 117.495 135.459 118.813C132.42 118.478 127.967 117.405 125.75 114.606C123.56 111.841 123.582 107.4 123.988 104.447C125.393 104.599 127.262 104.916 129.079 105.581Z" fill="black"/>
<path d="M50.5109 102.263C49.2692 101.916 47.9473 102.421 47.2532 103.507C47.0071 103.893 41.2565 113.042 44.4064 121.027C47.5419 128.976 58.038 131.992 58.4833 132.117C59.7024 132.464 61.0477 131.965 61.7411 130.873C61.9871 130.487 67.7378 121.338 64.5879 113.353C61.4524 105.404 50.9562 102.388 50.5109 102.263ZM57.8904 125.67C55.3248 124.58 51.2308 122.359 49.857 118.877C48.5719 115.619 49.868 111.405 51.1043 108.709C53.6698 109.799 57.7638 112.02 59.1376 115.503C60.4227 118.761 59.1267 122.975 57.8904 125.67Z" fill="black"/>
</svg>
